
    <svg width="256" height="256" viewBox="0 0 256 256" fill="none" xmlns="http://www.w3.org/2000/svg">
        
<g id="Frame 42">
<rect width="256" height="256" fill="#4DFF5E"/>
</g>

        
<g id="head">
<path id="Vector" d="M36.7332 45.6036C36.5521 45.9054 36.7936 47.1125 37.2764 48.2593C37.7593 49.4061 38.0007 50.915 37.8196 51.5789C37.6386 52.2428 37.7593 53.631 38.1214 54.5967C38.9061 56.8903 37.9403 57.856 34.5 58.2182C33.5946 58.3389 34.0171 60.0892 34.9829 60.0892C35.4657 60.0892 35.7071 60.3306 35.5261 60.6928C35.345 60.9946 35.4657 61.2964 35.8882 61.2964C36.3107 61.2964 36.4314 61.8999 36.3107 62.8053C36.1296 63.6503 36.19 64.3142 36.3711 64.3142C36.7936 64.3142 37.2764 73.4281 37.0953 77.2909C36.6728 86.0427 36.7332 86.767 37.6386 87.2498C38.3025 87.6723 38.3025 87.793 37.7593 87.8534C37.2764 87.8534 37.035 88.2155 37.2161 88.5777C37.3368 89.0002 37.035 90.2677 36.6125 91.4145L35.7071 93.4666L37.2764 92.4405C38.7853 91.4748 38.8457 91.4748 38.8457 92.6216C38.8457 93.4062 38.5439 93.708 38.0007 93.5269C37.5178 93.3459 36.9746 93.4666 36.7332 93.8287C36.5521 94.1909 36.8539 94.4927 37.4575 94.4927C38.3025 94.4927 38.3628 94.6134 37.7593 95.0359C36.6125 95.6998 36.7332 96.4844 38.0611 96.9673C39.0268 97.3898 39.0268 97.4501 37.88 97.4501C36.6125 97.5105 36.3711 98.1744 36.4918 101.434C36.4918 102.399 36.6125 104.27 36.6125 105.538C36.6728 106.987 36.9746 107.711 37.3971 107.53C37.8196 107.349 38.3025 107.65 38.4836 108.133C38.725 108.858 38.5439 108.978 37.6386 108.677C36.9746 108.435 36.4314 108.556 36.4314 108.918C36.4314 109.28 36.7332 109.582 37.035 109.582C37.4575 109.582 37.4575 109.944 37.035 110.789C36.2503 112.298 36.8539 112.358 38.4836 110.91C39.5096 110.065 39.6303 110.065 38.9664 110.91C38.5439 111.453 38.4232 111.996 38.725 112.117C38.9664 112.177 38.8457 112.962 38.3628 113.807C37.5782 115.195 37.5782 115.195 37.8196 113.928C38.0007 113.203 37.88 112.6 37.5782 112.6C36.7332 112.6 36.9746 114.773 37.9403 115.618C38.6043 116.161 38.8457 118.696 38.9664 128.293C39.0871 134.871 38.9664 140.122 38.7853 140.002C38.1818 139.64 38.3025 144.046 38.9061 145.736C39.2682 146.52 39.5096 148.693 39.5096 150.444C39.57 152.254 39.8718 154.005 40.2943 154.427C40.6564 154.85 40.8978 156.721 40.8375 159.014C40.7168 162.273 40.8375 162.756 41.6221 162.455C42.1653 162.273 42.7085 162.092 42.8292 162.092C43.0103 162.092 42.95 161.791 42.7689 161.489C42.5878 161.127 42.6482 160.885 42.95 160.885C43.8553 160.885 46.3299 165.955 46.2092 167.525C45.9678 169.456 46.9939 171.448 49.7099 174.345C50.8567 175.612 52.4864 177.785 53.3313 179.234C54.8403 181.829 55.9871 183.157 60.2724 187.503C61.7813 189.012 62.6263 190.339 62.5056 191.124C62.3849 191.909 63.1092 193.116 64.7388 194.564C66.127 195.832 67.2134 196.979 67.2134 197.16C67.2134 197.401 68.8431 199.212 70.8348 201.204C72.8266 203.256 74.4563 205.308 74.4563 205.73C74.4563 206.877 77.7759 209.895 78.3795 209.352C78.6209 209.05 78.6812 209.171 78.5002 209.593C78.0777 210.197 83.2684 215.75 84.898 216.414C85.3205 216.595 87.2519 217.802 89.2437 219.13C91.2355 220.458 93.2876 221.785 93.8308 222.147C100.168 226.01 102.402 227.278 104.393 227.881C105.661 228.304 107.592 229.028 108.679 229.511C109.705 229.934 110.972 230.296 111.515 230.296C112.059 230.296 113.085 230.96 113.809 231.805C114.533 232.65 116.042 233.434 117.249 233.676C120.207 234.159 122.078 235.124 121.776 236.03C121.535 236.573 122.561 236.875 124.975 237.176C132.278 237.961 136.081 238.685 137.046 239.47C137.469 239.832 138.193 239.832 138.917 239.41C139.521 239.047 142.599 238.746 145.677 238.685C151.713 238.565 152.437 238.323 162.517 232.951C164.629 231.805 167.164 230.899 168.07 230.899C170.001 230.899 170.967 229.813 169.76 229.028C168.734 228.425 166.561 228.907 163.784 230.356C156.481 234.159 151.834 235.849 147.428 236.331C142.539 236.875 136.926 236.633 134.149 235.728C133.304 235.486 130.83 235.366 128.657 235.547C126.061 235.788 124.552 235.667 124.311 235.185C123.828 234.46 124.311 234.34 128.053 234.521C129.502 234.581 130.588 234.34 130.588 233.977C130.588 233.615 130.588 233.132 130.588 232.831C130.588 232.589 129.441 232.408 127.993 232.348C119.664 232.287 117.491 232.046 116.344 231.141C115.74 230.658 115.499 230.356 115.861 230.537C116.766 230.96 119.12 229.209 119.12 228.123C119.12 227.157 117.853 226.976 116.948 227.881C116.042 228.787 109.463 227.942 109.463 226.976C109.463 225.648 107.713 224.562 106.928 225.346C105.842 226.433 105.178 226.252 101.677 223.958C99.9269 222.811 97.8747 221.665 97.0901 221.484C95.219 221.001 90.7526 217.138 90.7526 215.991C90.7526 215.388 90.4508 215.206 89.7266 215.508C87.7951 216.233 87.4934 216.112 87.2519 214.844C87.1312 214.12 85.3809 211.947 83.3287 210.016C81.2766 208.084 78.5002 205.127 77.2327 203.437C75.9652 201.807 73.3095 198.789 71.3781 196.798C66.7306 191.969 64.7388 189.494 65.2217 189.012C65.4631 188.83 64.1956 187.261 62.5056 185.632C60.7552 183.942 59.367 182.433 59.367 182.131C59.367 181.769 54.4178 176.216 50.5549 172.232C50.0117 171.689 49.7703 170.965 49.9514 170.663C50.2531 170.12 47.1146 163.3 45.6057 161.247C44.9417 160.342 43.6742 155.332 43.0103 151.228C42.7689 149.417 42.286 146.339 41.9239 144.408C41.6221 142.537 41.3203 132.035 41.3203 121.17C41.3203 99.623 40.8375 86.5255 39.9925 80.9124C39.3889 77.1702 39.6907 53.9328 40.2943 52.9068C40.5357 52.605 40.415 52.1825 40.1132 52.0014C39.8114 51.76 39.6907 50.1303 39.8718 48.3196C40.2339 45.0604 40.1735 45 38.6646 45C37.8196 45 36.9746 45.2414 36.7332 45.6036ZM38.4232 99.1401C38.1818 99.6833 38.3025 99.9851 38.6043 99.7437C38.9664 99.5626 39.2682 100.227 39.3285 101.192C39.3889 102.158 39.1475 102.943 38.8457 102.943C38.4836 102.943 38.3628 102.641 38.5439 102.339C38.725 101.977 38.4836 101.735 38.0007 101.735C37.4575 101.735 37.035 101.615 37.035 101.494C37.035 100.83 38.2421 98.1141 38.4836 98.1141C38.6646 98.1141 38.6043 98.5366 38.4232 99.1401Z" fill="black"/>
<path id="Vector_2" d="M205.129 51.0357C204.948 51.3374 204.948 52.6049 205.189 53.7517C205.431 55.1399 205.31 56.2263 204.827 56.7696C204.224 57.4938 204.224 58.0974 204.646 59.0631C206.759 63.4088 207.241 65.0988 207.241 67.5734C207.241 69.0824 207.422 70.3499 207.724 70.3499C208.267 70.3499 208.509 74.937 208.75 92.6819C209.052 112.962 210.259 126.784 211.768 126.301C212.432 126.059 212.372 124.43 211.104 115.98C209.957 107.771 209.957 97.088 211.104 97.088C212.07 97.088 212.372 98.8383 212.975 108.978C213.156 112.117 213.458 115.497 213.579 116.523C213.881 118.816 214.605 129.5 214.545 130.707C214.303 135.052 214.484 136.803 215.39 138.191C215.993 139.036 216.174 139.76 215.812 139.76C215.51 139.76 215.269 140.424 215.269 141.269C215.269 142.054 215.39 142.657 215.631 142.537C215.933 142.356 215.933 147.848 215.691 154.85C215.631 155.695 215.872 158.048 216.114 160.04C216.536 162.696 216.416 164.386 215.872 166.016C215.39 167.343 215.329 168.611 215.631 169.214C215.933 169.758 215.752 170.904 215.027 172.293C214.424 173.5 213.519 176.035 212.915 177.966C212.251 180.32 211.104 182.252 209.595 183.821C208.267 185.149 207.241 186.537 207.241 186.899C207.241 187.261 206.578 188.408 205.733 189.494C204.888 190.581 204.224 191.667 204.224 191.969C204.224 192.21 203.56 192.935 202.715 193.599C200.844 195.047 200.663 196.737 202.413 196.194C203.922 195.711 203.922 196.496 202.413 199.453C201.809 200.721 201.447 201.928 201.628 202.169C201.87 202.35 201.689 202.531 201.326 202.531C200.964 202.531 200.481 203.135 200.24 203.859C199.878 205.006 197.162 209.05 195.291 211.283C194.566 212.128 189.617 216.293 184.608 220.397C182.314 222.268 179.779 224.441 179.055 225.226C177.244 227.157 169.217 232.287 167.708 232.469C164.69 232.831 158.835 236.392 159.801 237.357C159.982 237.599 161.008 237.176 161.974 236.392C163 235.667 164.267 235.124 164.871 235.185C165.414 235.305 166.863 235.124 168.009 234.822C169.156 234.581 170.544 234.279 171.027 234.219C171.51 234.159 174.528 232.891 177.667 231.322C182.193 229.149 184.064 227.881 186.418 225.226C188.108 223.355 191.79 219.492 194.627 216.534C198.49 212.551 199.938 210.68 200.24 209.05C200.421 207.903 201.145 206.455 201.809 205.851C202.473 205.248 203.016 204.282 203.016 203.739C203.016 203.195 203.62 201.988 204.405 201.083C205.189 200.238 206.578 197.944 207.543 196.073C208.569 194.142 209.957 191.728 210.742 190.702C211.466 189.675 212.07 188.649 212.07 188.468C212.07 188.227 213.156 185.692 214.545 182.795C216.174 179.294 217.08 176.457 217.2 174.466C217.321 172.836 217.804 170.18 218.347 168.551C218.83 166.981 219.132 165.714 218.951 165.714C218.77 165.714 218.951 165.231 219.252 164.627C219.615 163.963 220.037 161.489 220.218 159.014C220.399 156.54 220.701 153.823 220.882 152.918C221.184 151.53 220.942 151.107 219.735 150.685C218.347 150.142 218.287 149.9 218.709 147.848C219.011 146.581 219.132 145.373 219.011 145.192C218.89 145.011 218.709 142.235 218.649 139.096C218.589 136.018 218.347 132.94 218.045 132.397C217.744 131.854 217.381 130.103 217.261 128.474C216.838 124.49 215.209 109.159 214.484 102.943C214.182 100.106 213.881 94.7944 213.82 91.0523C213.76 85.6805 213.519 83.8698 212.613 82.1798C211.829 80.6709 211.466 78.7998 211.466 76.2045C211.466 71.7381 210.501 65.8231 209.354 63.7106C207.845 60.8135 207.181 57.011 207.604 53.6914C207.966 50.6735 207.905 50.4321 206.759 50.4321C206.034 50.4321 205.31 50.6735 205.129 51.0357ZM211.466 90.5694C211.044 91.0523 210.44 91.4748 210.139 91.4748C209.776 91.4748 209.837 91.0523 210.259 90.5694C210.682 90.0866 211.285 89.6641 211.587 89.6641C211.949 89.6641 211.889 90.0866 211.466 90.5694ZM212.251 92.5008C211.829 92.6216 211.466 93.2855 211.466 93.8891C211.466 95.3376 210.501 95.9412 210.018 94.7944C209.475 93.3458 210.259 92.0784 211.708 92.1387C212.372 92.1387 212.613 92.3198 212.251 92.5008ZM219.313 154.85C219.313 156.781 218.77 158.471 218.166 158.471C217.985 158.471 217.804 157.143 217.804 155.513C217.804 153.401 217.985 152.677 218.528 152.858C218.951 153.039 219.313 153.944 219.313 154.85ZM218.709 160.704C218.709 161.549 217.562 162.998 217.2 162.636C216.717 162.153 217.502 160.282 218.166 160.282C218.468 160.282 218.709 160.463 218.709 160.704ZM210.561 187.08C209.535 189.253 208.449 189.977 208.449 188.408C208.449 187.442 210.863 184.243 211.285 184.666C211.466 184.787 211.104 185.873 210.561 187.08ZM208.026 192.15C207.905 192.754 207.181 194.021 206.396 194.927C205.189 196.496 205.069 196.496 205.008 195.349C204.948 194.625 205.129 194.082 205.491 194.082C205.793 194.082 206.034 193.538 206.034 192.935C206.034 191.909 206.698 191.245 207.966 191.124C208.147 191.064 208.207 191.547 208.026 192.15ZM188.531 219.431C188.531 220.216 183.702 225.467 183.038 225.467C182.737 225.467 181.529 226.433 180.443 227.58C178.33 229.752 177.425 230.115 176.761 229.089C176.52 228.726 176.822 228.666 177.425 228.907C178.089 229.149 178.33 229.028 178.089 228.666C177.908 228.364 178.391 227.7 179.175 227.278C180.02 226.855 180.684 226.131 180.684 225.709C180.684 225.346 181.288 224.562 182.073 224.079C182.797 223.536 184.487 222.147 185.754 221.001C188.35 218.647 188.531 218.526 188.531 219.431Z" fill="black"/>
</g>

        
<g id="hair">
<path id="Vector" d="M96.8453 10.0231C93.1307 15.0654 89.9467 20.6385 89.9467 22.2308C89.9467 23.8231 88.62 24.3538 86.7627 23.2923C80.66 19.3115 61.556 19.3115 58.372 23.2923C56.5147 25.4154 52.8 26.4769 49.616 25.4154C46.1667 24.6192 44.5747 25.15 45.636 26.7423C46.6973 28.3346 45.1053 30.1923 42.1867 30.9885C39.268 31.7846 36.88 33.9077 36.88 35.7654C36.88 38.4192 37.676 38.4192 40.064 36.0308C44.84 31.2538 54.1267 32.3154 59.6987 38.4192L64.74 43.9923L52.2693 42.1346C40.3293 40.2769 40.064 40.5423 40.3293 46.9115C40.86 53.0154 41.3907 53.2808 45.1053 49.8308C47.228 47.7077 50.9427 46.1154 52.8 46.1154C55.188 46.1154 54.6573 47.4423 51.208 50.0961C46.9627 53.5461 46.9627 53.8115 50.9427 52.4846C53.596 51.4231 55.4533 52.2192 55.4533 54.0769C55.4533 55.6692 53.3307 56.7308 50.9427 56.2C48.2893 55.9346 44.84 56.2 43.5133 57.2615C41.9213 58.3231 39.0027 58.0577 36.88 56.7308C33.9613 54.8731 33.9613 53.8115 36.6147 50.3615C39.0027 47.4423 39.268 46.1154 37.1453 46.1154C35.5533 46.1154 34.2267 47.4423 34.2267 49.0346C34.2267 50.6269 32.3693 51.1577 29.9813 50.3615C25.736 48.7692 13.2653 60.7115 13 66.8154C13 68.6731 16.4493 66.2846 20.6947 61.5077C24.94 56.7308 29.4507 53.5462 30.512 54.8731C31.5733 55.9346 29.9813 58.5885 26.7973 60.9769C23.6133 63.1 20.96 66.2846 20.96 67.8769C20.96 69.4692 23.8787 68.1423 27.328 64.9577C30.7773 61.7731 34.2267 60.1808 35.288 61.5077C36.084 62.8346 33.1653 67.3462 28.92 71.3269C24.4093 75.5731 20.96 80.35 20.96 81.6769C20.96 83.2692 23.348 81.6769 26.2667 77.9615C32.3693 70.2654 33.1653 73.7154 27.5933 83.2692C25.4707 86.9846 23.8787 94.4154 23.6133 99.7231C23.6133 105.031 22.552 112.462 20.96 116.177C17.776 124.669 20.164 125.465 23.8787 116.973C25.736 112.727 26.0013 115.115 25.2053 127.323C24.4093 136.081 21.2253 149.085 18.3067 155.985C12.204 170.315 11.408 176.154 15.9187 171.642C17.5107 170.05 20.96 161.823 23.8787 153.331C28.92 137.938 29.1853 137.673 27.5933 149.615C26.7973 156.25 22.8173 168.458 19.1027 176.95C13.796 188.627 13 193.138 15.1227 195.262C17.5107 197.65 18.3067 197.385 18.3067 194.465C18.3067 192.077 20.6947 188.096 23.6133 185.442C29.716 180.135 31.0427 173.765 25.2053 178.542C22.2867 181.196 22.552 178.808 26.0013 168.988C29.4507 159.965 30.7773 148.554 31.0427 128.385C31.0427 111.135 30.2467 102.642 28.92 105.827C27.0627 110.073 26.532 108.746 26.532 100.519C26.2667 94.4154 28.3893 86.1885 31.5733 81.1461C34.492 76.6346 36.084 72.6538 35.5533 72.6538C34.7573 72.6538 35.288 70.2654 36.88 67.3461C38.472 64.4269 40.5947 62.3038 41.656 62.5692C42.7173 62.8346 47.4933 62.0385 52.2693 60.9769C58.1067 59.65 60.76 57.5269 60.76 54.0769C60.76 51.1577 62.8827 47.9731 65.2707 46.3808C69.2507 44.2577 69.2507 43.4615 66.0667 39.4808C62.6173 35.5 62.8827 34.1731 68.4547 29.6615C73.496 25.6808 75.3533 25.4154 76.9453 28.0692C78.5373 30.4577 79.3333 30.4577 79.3333 28.3346C79.3333 24.8846 89.1507 26.7423 91.5387 30.7231C92.6 32.3154 91.5387 34.4385 89.6813 35.7654C84.64 38.95 81.1907 38.6846 83.3133 35.5C84.3747 33.9077 82.5173 33.3769 78.8027 33.9077C75.3533 34.7038 71.108 35.2346 69.2507 35.2346C67.3933 35.5 66.5973 36.8269 67.3933 38.1538C68.4547 39.7461 71.3733 40.2769 74.292 39.4808C79.864 37.6231 81.456 42.9308 75.884 45.0538C74.0267 45.5846 72.1693 50.8923 71.904 56.7308C71.3733 64.9577 72.1693 67.3462 76.68 68.6731C79.5987 69.4692 81.9867 71.5923 81.9867 73.1846C81.9867 74.5115 80.1293 75.0423 77.7413 74.2461C75.3533 73.45 72.4347 72.6538 71.108 72.6538C69.7813 72.6538 68.72 68.1423 68.4547 62.5692C68.4547 54.8731 67.924 54.0769 66.332 58.0577C65.0053 60.9769 65.2707 66.0192 66.332 69.4692C70.0467 79.0231 69.2507 90.4346 65.0053 92.0269C59.6987 94.15 49.8813 77.4308 53.0653 72.3885C54.9227 69.4692 56.5147 70 60.76 75.3077C65.0053 80.6154 65.8013 80.8808 64.2093 76.6346C63.4133 73.7154 61.0253 69.2038 59.4333 66.55C56.5147 62.3038 55.984 62.3038 52.2693 66.55C45.1053 75.0423 33.4307 109.277 35.288 116.973C37.4107 124.935 40.3293 123.077 41.656 112.992C42.9827 102.908 44.84 102.112 44.84 111.4C44.84 115.912 43.7787 120.423 42.452 122.015C40.86 123.342 39.5333 134.488 39.268 146.962C39.0027 159.435 37.1453 174.296 35.288 180.135C31.5733 191.281 32.104 195.527 36.3493 187.565C40.86 179.338 44.5747 163.15 42.1867 162.354C40.86 161.823 42.7173 153.331 46.1667 143.512C49.616 133.692 51.4733 126.262 50.1467 127.058C48.82 127.854 46.432 132.365 44.84 137.142C42.452 144.573 42.452 144.042 44.044 133.692C45.1053 127.058 45.9013 113.258 45.9013 102.642C46.1667 81.6769 48.5547 76.1038 52.8 86.9846C56.2493 96.2731 62.352 98.3961 68.72 92.5577C72.9653 88.8423 74.0267 88.5769 74.5573 91.4961C74.5573 93.6192 75.088 96.2731 75.3533 97.8654C75.884 99.1923 76.1493 102.112 76.4147 103.969C76.68 106.623 77.7413 106.623 80.66 103.438C84.3747 99.7231 84.3747 98.6615 80.66 93.0885C76.9453 87.25 77.2107 86.4538 82.252 80.8808C86.7627 76.1038 88.3547 75.5731 90.212 78.4923C91.5387 80.6154 92.6 80.6154 92.6 79.0231C92.6 77.4308 90.7427 74.5115 88.3547 72.3885C85.7013 70.2654 84.64 66.0192 85.1707 60.1808C85.7013 54.8731 85.1707 51.4231 83.3133 51.4231C81.456 51.4231 80.66 54.8731 81.1907 59.9154C81.9867 66.55 81.7213 67.8769 79.5987 64.6923C76.4147 60.1808 75.6187 47.9731 78.5373 45.3192C81.456 42.1346 92.0693 54.0769 90.7427 59.1192C90.212 61.7731 91.5387 65.2231 93.6613 67.0808C98.968 71.5923 98.968 79.0231 93.6613 87.25C91.2733 90.7 90.212 94.9462 91.2733 96.5385C93.9267 100.785 97.1107 97.6 99.2333 88.0462C101.091 79.5538 101.091 79.5538 102.948 85.9231C104.54 91.4961 105.336 90.1692 106.928 78.4923C108.52 68.6731 107.989 63.3654 105.867 60.7115C103.479 57.7923 103.213 56.7308 105.601 56.7308C107.459 56.7308 107.989 55.4038 106.928 53.8115C105.867 51.6885 104.54 51.6885 102.417 53.8115C100.56 55.6692 100.56 58.5885 102.683 63.3654C106.132 70.7962 106.928 80.0846 104.009 76.9C100.56 73.45 95.5187 55.4038 96.8453 50.8923C98.7027 44.7885 107.193 42.4 113.827 46.1154C117.011 47.7077 120.725 48.5038 122.583 47.7077C124.44 47.1769 123.909 46.3808 121.256 46.3808C118.337 46.1154 117.276 44.5231 118.337 40.5423C119.133 37.6231 121.256 35.7654 123.379 36.5615C125.236 37.3577 127.624 36.8269 128.42 35.5C129.481 33.9077 131.339 32.8461 132.931 32.8461C134.523 32.8461 133.992 34.9692 131.604 37.6231C128.951 40.2769 127.093 47.1769 126.828 53.0154C126.828 58.5885 126.032 61.7731 125.236 59.9154C124.705 58.3231 122.583 56.7308 120.991 56.7308C119.133 56.7308 116.215 54.3423 114.357 51.4231C112.5 48.5038 109.847 46.1154 107.989 46.1154C106.397 46.1154 106.928 47.9731 109.316 50.8923C111.969 53.5461 113.827 57.2615 113.827 59.1192C113.827 60.9769 114.888 61.7731 115.949 60.9769C117.276 60.1808 121.521 62.8346 125.767 66.8154C130.012 70.7962 134.788 73.7154 136.115 73.1846C137.441 72.6538 137.707 76.6346 136.911 81.9423C135.849 88.3115 136.38 90.7 138.237 89.6385C141.952 87.25 139.033 67.8769 133.992 62.3038C127.093 54.8731 128.685 50.6269 137.707 51.9538C142.217 52.75 146.463 52.2192 147.259 50.8923C148.055 49.8308 146.728 48.7692 144.605 48.7692C142.483 48.7692 140.095 46.6462 139.564 43.9923C138.503 39.7462 138.237 39.7462 137.972 43.9923C137.707 48.7692 134.788 50.0962 131.604 47.1769C128.951 44.5231 134.788 35.5 139.033 35.5C141.156 35.5 144.605 38.1538 146.728 41.3385C149.116 44.5231 150.973 45.85 150.973 43.9923C150.973 42.4 152.035 40.8077 153.627 40.8077C155.219 40.8077 155.219 43.1962 153.627 47.1769C152.3 50.6269 152.035 54.3423 153.096 55.6692C154.157 56.7308 153.361 56.7308 151.769 55.6692C149.647 54.3423 148.32 55.4038 148.32 58.3231C148.32 61.5077 147.259 62.0385 145.136 60.1808C141.156 57.2615 132.4 53.8115 132.4 55.1385C132.4 55.6692 136.645 58.5885 141.687 61.7731C150.177 66.55 150.973 66.8154 150.973 62.5692C150.973 58.5885 151.504 58.5885 153.627 62.0385C157.341 67.8769 156.811 80.8808 152.565 89.3731L148.585 96.5385L154.953 92.0269C163.975 85.3923 165.036 80.0846 160.26 68.4077C155.484 56.9961 157.076 37.6231 163.179 32.5808C165.301 30.9885 166.363 28.6 165.567 27.5385C164.24 25.4154 174.853 15.5961 180.956 13.4731C182.813 12.9423 183.344 11.6154 182.548 10.5538C180.691 8.69616 160.525 21.1692 159.995 24.3538C158.403 32.3154 155.219 38.1538 152.565 38.1538C146.463 38.1538 145.932 34.7038 150.973 28.3346C153.627 24.8846 155.219 20.1077 154.423 17.9846C152.035 11.6154 148.851 13.7385 150.443 20.9038C151.769 28.3346 149.381 29.1308 142.483 23.8231C138.768 21.1692 138.503 19.5769 141.156 16.3923C142.748 14.0038 146.197 11.6154 148.32 10.8192C151.239 9.75769 151.239 9.22691 147.524 9.22691C140.36 8.96153 127.624 21.9654 128.951 27.8038C130.543 33.6423 125.501 34.4385 115.153 29.6615L108.52 26.7423L114.357 20.3731C121.787 12.4115 124.971 12.6769 121.787 21.1692C118.337 29.9269 118.337 30.1923 123.113 30.1923C125.501 30.1923 127.093 28.6 126.828 26.7423C125.767 17.7192 127.624 12.1462 133.196 9.49231C136.38 7.9 137.441 6.57307 135.319 6.57307C129.216 6.30769 105.867 20.1077 105.867 24.0885C105.867 26.2115 104.009 27.5385 101.356 27.0077C94.988 25.6808 96.58 15.0654 104.009 6.83846C106.928 3.65384 108.255 1 106.663 1C105.071 1 100.825 4.98076 96.8453 10.0231ZM66.5973 27.8038C63.4133 30.7231 59.4333 32.3154 57.576 31.2538C54.1267 29.1308 62.0867 22.2308 68.4547 22.2308C71.3733 22.2308 70.8427 23.5577 66.5973 27.8038ZM145.667 30.9885C145.667 32.3154 143.809 32.5808 141.421 31.7846C139.033 30.9885 136.115 30.1923 134.788 30.1923C133.461 30.1923 132.4 28.3346 132.4 26.2115C132.4 23.0269 133.461 22.7615 139.033 25.4154C142.748 27.0077 145.667 29.3962 145.667 30.9885ZM104.275 34.1731C105.071 36.2962 104.805 38.1538 103.479 38.1538C102.152 38.1538 99.764 36.2962 97.9067 34.1731C95.2533 30.9885 95.2533 30.1923 98.7027 30.1923C100.825 30.1923 103.213 32.05 104.275 34.1731ZM114.888 34.4385C117.807 41.8692 116.48 44.7885 112.5 39.7462C110.377 36.8269 108.52 33.6423 108.52 32.3154C108.52 28.6 113.296 29.9269 114.888 34.4385ZM97.9067 42.1346C97.9067 47.1769 90.7427 49.0346 87.2933 44.7885C85.1707 42.1346 85.436 40.5423 89.1507 38.6846C94.4573 35.5 97.9067 36.8269 97.9067 42.1346ZM79.3333 80.8808C79.3333 82.2077 78.272 83.2692 76.68 83.2692C75.3533 83.2692 74.0267 81.4115 74.0267 79.0231C74.0267 76.9 75.3533 75.8385 76.68 76.6346C78.272 77.4308 79.3333 79.2885 79.3333 80.8808Z" fill="black"/>
<path id="Vector_2" d="M35.8187 83.5346C27.8587 98.9269 27.328 101.05 32.6347 96.8039C36.084 93.8846 45.9013 70 43.7787 70C43.248 70 39.7987 76.1039 35.8187 83.5346Z" fill="black"/>
<path id="Vector_3" d="M167.689 33.3769C160.26 37.0923 158.668 54.8731 164.505 68.4077C166.097 72.3885 166.363 70.7962 165.301 63.3654C163.975 54.8731 164.24 53.2808 166.893 55.9346C170.608 59.3846 171.404 75.5731 168.485 85.9231C166.893 90.9654 167.159 91.4962 169.281 88.5769C170.873 86.4539 172.2 81.6769 172.2 77.9616C172.2 73.1846 172.996 72.3885 175.119 74.5116C177.507 76.9 177.241 79.8192 175.119 86.4539C173.261 91.7616 172.996 94.15 174.853 92.2923C176.445 90.7 178.568 85.9231 179.895 81.4116C181.752 75.0423 181.221 72.3885 177.241 68.9385C174.588 66.55 172.2 63.3654 172.2 61.5077C172.465 59.65 174.588 60.7116 177.507 64.1616C180.425 67.6116 183.875 69.7346 185.467 68.6731C186.793 67.8769 188.12 68.1423 188.12 69.7346C188.12 71.0616 187.059 72.9192 185.732 73.7154C182.813 75.5731 189.977 91.2308 193.692 91.2308C195.284 91.2308 195.284 89.3731 193.427 86.1885C192.1 83.2692 190.773 77.6962 190.773 73.7154C190.773 62.8346 197.672 70.2654 200.06 84.0654C201.652 94.15 202.183 94.6808 204.305 89.1077C205.632 85.6577 205.897 81.6769 205.101 80.35C202.979 76.9 206.693 67.0808 209.612 68.6731C210.939 69.7346 212 71.5923 212 72.9192C212 74.5116 210.939 75.0423 209.612 73.9808C208.02 73.1846 208.02 75.8385 209.612 81.1462C210.939 85.9231 212 92.2923 211.735 95.2116C211.469 99.4577 211.204 99.1923 209.612 93.8846C207.755 87.5154 207.489 87.5154 205.897 92.8231C204.836 96.0077 205.101 101.581 206.428 105.562C208.02 109.277 208.285 112.462 207.224 112.462C206.163 112.462 206.693 113.523 208.285 114.585C209.877 115.646 212 121.219 213.061 127.058C214.388 134.223 214.123 136.346 212.265 133.958C209.612 129.977 209.877 134.754 213.592 164.742C214.388 171.112 215.98 176.154 217.307 176.154C218.633 176.154 220.225 178.277 220.756 180.665C221.817 184.646 222.083 184.381 222.348 179.869C222.348 176.95 221.552 173.5 220.225 171.908C218.899 170.581 217.041 162.354 215.98 153.596C213.592 132.631 218.103 136.877 224.205 161.558C226.593 171.642 229.512 182.523 230.839 185.442C232.961 189.954 232.961 189.954 231.635 184.646C230.839 181.196 231.369 177.215 232.696 175.358C234.819 172.969 233.492 168.192 228.981 159.169C225.267 152.004 223.144 145.635 223.675 144.838C224.471 144.042 226.328 146.431 227.92 149.881C230.043 154.923 230.308 153.596 228.981 143.246C228.185 136.081 226.328 127.854 225.001 124.669C223.409 120.688 223.144 122.546 224.205 130.773C225.267 139 225.001 141.919 222.879 140.592C221.287 139.531 219.96 134.754 219.96 129.712C219.96 124.669 218.899 120.158 217.572 119.362C214.123 117.238 209.081 101.846 211.735 101.846C213.061 101.846 214.653 105.296 215.715 109.808C216.511 114.054 218.368 117.769 219.695 117.769C221.287 117.769 220.491 113.523 218.368 108.215C216.245 102.908 214.919 96.0077 215.449 92.8231C216.245 88.0462 216.776 88.3116 218.633 95.2116C219.695 99.4577 222.879 106.092 225.267 109.808C227.655 113.523 229.247 117.769 228.716 119.096C228.185 120.688 231.369 125.465 235.88 129.712C245.167 138.469 246.228 136.612 238.268 125.2C235.084 120.954 233.227 116.708 234.023 115.912C234.819 115.115 232.961 110.073 229.512 104.765C226.328 99.4577 221.287 89.6385 218.633 82.7385C216.245 75.8385 211.735 68.4077 209.347 66.0192C206.693 63.6308 205.101 59.9154 205.632 58.0577C206.428 56.2 204.04 52.2192 200.325 49.3C194.488 44.7885 194.223 43.7269 197.672 42.4C200.06 41.3385 203.775 42.1346 205.632 43.7269C208.285 45.85 209.347 45.85 209.347 43.9923C209.347 35.5 186.793 34.1731 181.221 42.1346C179.099 44.7885 176.711 46.1154 175.649 45.0539C172.731 42.4 184.936 32.8462 189.181 34.4385C191.039 35.2346 195.284 34.4385 198.999 32.8462C204.571 30.4577 204.04 30.1923 194.753 30.9885C188.916 31.5192 181.752 33.1116 179.099 34.1731C175.384 35.7654 174.588 35.5 175.915 33.3769C178.303 29.6616 175.649 29.6616 167.689 33.3769ZM174.853 37.0923C174.853 37.8885 173.527 40.8077 172.2 43.7269C170.077 47.7077 170.343 48.7692 173.527 48.7692C175.649 48.7692 177.507 49.8308 177.507 51.4231C177.507 52.75 179.099 53.2808 180.956 52.75C182.813 51.9539 184.405 53.8116 184.405 58.0577C184.936 65.7539 184.671 66.0192 179.629 61.2423C177.507 59.65 173.527 56.7308 170.873 55.1385C166.097 52.4846 163.444 42.6654 166.097 37.3577C167.424 35.2346 174.853 34.7039 174.853 37.0923ZM189.447 46.3808C188.651 50.0962 189.447 51.4231 191.835 50.6269C196.08 49.0346 206.163 55.4039 203.509 58.0577C202.713 59.1192 199.264 58.5885 196.345 56.7308C193.161 55.1385 190.773 54.8731 190.773 56.4654C190.773 57.7923 192.631 59.3846 194.753 60.4462C196.876 61.2423 198.733 63.1 198.733 64.6923C198.733 71.3269 187.324 64.4269 186.793 57.5269C186.793 54.8731 185.732 51.1577 184.405 49.3C182.283 45.85 184.405 40.8077 188.12 40.8077C189.447 40.8077 189.977 43.1962 189.447 46.3808Z" fill="black"/>
<path id="Vector_4" d="M198.999 99.1923C198.999 101.315 200.591 109.808 202.713 117.769C204.571 125.731 206.428 129.977 206.428 127.058C206.428 124.138 204.836 115.646 202.979 108.481C200.856 101.05 199.264 97.0692 198.999 99.1923Z" fill="black"/>
<path id="Vector_5" d="M34.7573 140.327C34.7573 144.573 35.288 146.165 36.084 143.512C36.6147 141.123 36.6147 137.408 36.084 135.55C35.288 133.958 34.7573 135.815 34.7573 140.327Z" fill="black"/>
<path id="Vector_6" d="M233.492 178.808C233.492 180.931 234.553 185.177 235.88 188.096C238.268 193.404 238.268 193.404 238.268 188.096C238.268 185.177 237.207 180.931 235.88 178.808C233.492 175.358 233.227 175.358 233.492 178.808Z" fill="black"/>
</g>

        
<g id="Frame 21">
<path id="Vector" d="M75.8591 97.6206C72.5407 100.939 76.7641 104.861 83.0991 104.861C86.1157 104.861 91.2441 106.067 94.2607 107.576C109.947 116.324 119.299 119.341 118.092 116.022C115.981 109.386 79.7807 93.6989 75.8591 97.6206Z" fill="black"/>
<path id="Vector_2" d="M144.639 106.973C138.002 109.084 131.365 112.403 129.857 113.911C124.125 119.643 130.159 119.643 145.544 113.911C154.292 110.593 164.549 107.878 168.772 107.878C172.995 107.878 176.314 106.671 176.314 104.861C176.314 100.939 159.119 101.844 144.639 106.973Z" fill="black"/>
<path id="Vector_3" d="M71.0319 124.469C71.0319 130.201 71.3336 130.502 73.4452 124.469C75.5569 119.039 75.8586 119.341 77.6686 126.279C78.8752 130.502 82.7969 135.631 86.4169 137.441L93.3552 141.061L86.1152 140.156C82.1936 139.854 78.2719 141.061 77.6686 142.871C76.1602 147.094 109.947 148.301 115.98 144.077C119.299 141.664 117.187 141.362 108.439 142.569C98.1819 143.776 97.5785 143.776 104.819 141.362C132.873 132.011 124.728 120.246 90.0369 118.737C72.2386 118.134 70.7302 118.737 71.0319 124.469ZM95.7685 129.296C94.8635 132.614 95.4669 135.027 97.2769 135.027C98.7852 135.027 100.897 132.312 101.802 128.994C103.31 122.659 111.154 120.849 114.472 125.977C117.79 131.106 110.249 137.742 102.104 137.139C97.8802 136.837 93.3552 134.424 91.8469 132.011C89.4335 128.391 88.8302 128.391 88.8302 131.709C88.8302 135.027 87.9252 135.027 84.3052 132.011C77.3669 126.279 78.8752 123.262 88.5286 123.564C95.1652 123.866 96.6735 125.072 95.7685 129.296Z" fill="black"/>
<path id="Vector_4" d="M104.215 130.804C104.215 134.122 105.12 135.027 106.025 132.614C106.93 130.502 106.629 127.787 105.724 126.882C104.819 125.676 103.914 127.486 104.215 130.804Z" fill="black"/>
<path id="Vector_5" d="M136.192 125.374C132.874 128.994 132.27 132.011 134.382 135.932C136.494 139.552 136.192 141.061 133.477 141.061C130.762 141.061 131.064 142.267 134.08 145.586C137.7 148.904 142.527 149.206 156.102 147.396C165.755 146.189 175.107 143.172 177.219 141.061C180.235 138.044 179.632 137.742 174.805 139.552C171.487 141.061 163.644 142.267 157.309 142.871C151.275 143.474 144.94 144.379 143.432 145.586C141.924 146.491 139.812 145.887 138.605 144.077C137.7 142.267 139.812 141.061 143.734 140.759H150.672L144.035 138.044C140.114 136.536 137.097 133.217 137.097 130.502C137.097 124.469 140.114 124.771 144.94 131.106C148.56 135.932 148.56 135.932 147.052 129.597C145.544 123.866 146.449 122.961 155.197 122.961C164.247 122.961 164.85 123.564 163.644 132.011C162.739 136.837 162.739 141.061 163.04 141.061C163.644 141.061 167.565 139.552 171.789 137.441C187.475 130.502 178.425 119.944 156.705 119.944C145.544 119.944 139.51 121.452 136.192 125.374ZM175.409 129.899C173.599 135.631 168.47 135.329 168.47 129.296C168.47 125.977 169.979 124.167 172.694 125.072C174.805 125.977 176.012 128.089 175.409 129.899Z" fill="black"/>
<path id="Vector_6" d="M152.18 130.201C152.18 132.614 153.689 135.631 155.197 136.536C157.007 137.441 158.214 135.631 158.214 132.312C158.214 128.692 157.007 125.977 155.197 125.977C153.689 125.977 152.18 127.787 152.18 130.201Z" fill="black"/>
<path id="Vector_7" d="M182.95 132.011C182.95 136.234 183.554 137.742 184.459 135.631C185.062 133.821 185.062 130.201 184.459 128.089C183.554 126.279 182.95 127.788 182.95 132.011Z" fill="black"/>
</g>

        
<g id="Frame 24">
<path id="Vector" d="M127.512 137.586C126.876 138.434 125.394 143.305 124.123 148.388C122.217 154.741 120.099 158.13 116.499 159.4C110.992 161.518 105.91 169.143 108.875 170.837C109.933 171.472 111.204 170.202 111.84 167.872C112.475 165.542 115.44 162.789 118.405 161.73C122.429 160.036 124.547 156.859 126.876 148.599C129.842 138.434 130.265 133.139 127.512 137.586Z" fill="black"/>
<path id="Vector_2" d="M132.383 159.612C129.841 161.307 130.477 161.518 135.136 160.46C138.948 159.824 142.549 160.248 144.667 161.942C147.42 164.272 147.632 164.272 146.784 161.518C145.514 157.706 136.619 156.436 132.383 159.612Z" fill="black"/>
<path id="Vector_3" d="M118.617 167.872C117.981 168.931 118.829 169.99 120.523 169.99C122.217 169.99 124.335 168.931 124.97 167.872C125.606 166.601 124.759 165.754 123.064 165.754C121.37 165.754 119.252 166.601 118.617 167.872Z" fill="black"/>
<path id="Vector_4" d="M132.806 168.084C133.23 169.355 134.501 170.202 135.56 170.202C136.619 170.202 137.889 169.355 138.313 168.084C138.736 166.813 137.466 165.754 135.56 165.754C133.654 165.754 132.383 166.813 132.806 168.084Z" fill="black"/>
</g>

        
<g id="Frame 30">
<g id="Group 39">
<path id="Vector" d="M148.249 185.971C147.677 186.544 137.194 187.116 124.995 187.116C112.796 187.307 102.503 187.879 102.122 188.642C100.978 190.549 108.221 206 110.127 206C111.271 206 113.749 202.376 115.655 198.179L119.467 190.168L123.661 197.226C126.139 201.041 128.235 204.093 128.807 204.093C129.76 204.093 135.288 193.22 135.288 191.312C135.288 190.549 133.572 191.885 131.476 194.555C127.854 199.324 127.854 199.324 124.995 195.509C121.564 190.74 123.661 188.26 130.713 189.214C134.907 189.596 137.003 191.503 139.672 196.844C141.387 200.85 143.484 204.093 144.437 204.093C145.199 204.093 147.296 201.231 149.393 197.798L153.014 191.694L154.73 196.844C155.683 199.896 157.208 202.185 157.97 202.185C159.114 202.185 162.545 196.272 167.31 186.353C168.073 184.827 149.774 184.445 148.249 185.971ZM161.973 188.26C161.973 192.075 159.495 198.37 158.161 198.37C157.398 198.37 156.064 196.081 155.302 193.029L153.968 187.879L148.821 194.174L143.484 200.278L141.387 195.509C138.338 188.833 138.147 189.214 146.343 188.26C159.686 186.925 161.973 186.925 161.973 188.26ZM113.749 196.463C112.605 199.515 111.08 202.185 110.509 202.185C109.937 202.185 108.412 199.515 107.268 196.463C105.171 190.931 105.362 190.74 110.509 190.74C115.655 190.74 115.846 190.931 113.749 196.463Z" fill="black"/>
</g>
</g>

        
<g id="Frame 33">
<g id="Group 43">
<path id="Vector" d="M42.6958 145.951C40.7973 149.587 43.1177 179.282 45.6491 181.1C46.7038 181.858 47.5476 184.282 47.5476 186.554C47.5476 188.827 48.3914 191.099 49.4461 191.554C50.2899 192.008 52.3994 195.493 53.876 199.28C57.0402 207.613 60.2044 209.431 60.2044 203.068C60.2044 200.493 59.3607 198.674 58.3059 199.129C54.2979 200.947 49.0242 180.191 52.3994 176.252C53.2432 175.343 52.6103 170.04 50.9228 164.283C49.4461 158.526 48.3914 152.617 48.8133 151.102C49.0242 149.739 48.3914 148.527 47.5476 148.527C46.4929 148.527 45.4381 147.315 45.0163 145.8C44.3834 143.376 44.1725 143.376 42.6958 145.951ZM46.9148 165.495C46.4929 167.465 46.071 166.253 46.071 162.92C45.86 159.586 46.2819 158.071 46.9148 159.435C47.3367 160.95 47.3367 163.677 46.9148 165.495Z" fill="black"/>
<path id="Vector_2" d="M206.391 147.769C210.188 154.738 212.508 164.131 211.243 168.222C210.399 171.404 210.821 172.616 212.719 172.313C214.196 172.161 215.04 173.373 214.618 175.797C214.196 177.918 213.774 183.675 213.985 188.675C213.985 198.826 210.61 196.402 209.766 185.645L209.344 179.585L208.079 184.584C207.446 187.311 205.969 189.281 204.703 189.13C203.649 188.827 202.383 190.19 201.961 192.16C201.539 193.978 200.274 195.19 199.219 194.735C198.164 194.129 197.32 198.068 197.531 204.128C197.742 215.037 200.695 233.672 201.328 227.309C201.328 225.187 203.438 222.309 205.758 220.794C208.5 219.127 209.977 216.249 210.188 212.613C210.399 209.431 211.243 204.734 212.297 202.31C213.774 198.674 213.774 199.28 213.141 205.34C212.087 214.431 215.04 210.34 217.36 199.28C218.204 195.038 219.47 192.614 219.892 193.675C220.524 194.584 221.579 195.19 222.423 194.887C224.321 193.978 221.157 173.222 218.415 168.525C217.149 166.555 216.305 162.768 216.305 159.889C216.305 152.92 214.196 149.133 211.876 151.86C210.61 153.223 209.977 152.92 209.977 150.496C209.977 148.678 208.922 146.708 207.446 146.102C205.758 145.345 205.547 145.799 206.391 147.769ZM218.204 185.19C217.993 190.493 217.782 190.948 216.516 187.918C215.04 184.433 215.673 178.827 217.571 178.827C217.993 178.827 218.415 181.706 218.204 185.19ZM209.344 197.917C208.5 202.159 208.5 202.159 208.079 197.311C207.868 193.978 207.024 192.614 205.336 193.372C203.86 194.129 203.649 193.826 204.703 192.614C207.235 189.584 210.399 193.069 209.344 197.917ZM205.125 200.341C204.492 201.401 204.071 200.644 204.071 198.523C204.071 196.402 204.492 195.644 205.125 196.553C205.547 197.614 205.547 199.432 205.125 200.341ZM205.125 205.795C208.289 208.219 208.711 211.552 205.758 212.916C204.703 213.37 203.649 215.34 203.649 217.158C203.649 219.733 203.227 220.036 201.75 218.37C200.695 217.309 200.695 214.431 201.539 212.158C202.383 209.886 202.383 207.007 201.328 205.946C200.274 204.734 199.641 202.765 199.641 201.553C199.852 199.583 199.852 199.583 200.906 201.553C201.75 202.765 203.438 204.734 205.125 205.795Z" fill="black"/>
<path id="Vector_3" d="M55.5637 175.343C54.9309 185.645 56.1966 191.251 60.4155 196.705C62.525 199.735 64.4235 203.977 64.6345 206.098C64.6345 208.219 65.4783 211.249 66.533 212.916C68.0097 215.491 68.4315 215.34 68.4315 211.401C68.8534 205.189 72.2286 209.28 74.1271 217.764C74.76 221.4 76.2366 224.279 77.2914 224.279C79.6118 224.279 79.6118 224.582 77.2914 218.521C76.0257 215.491 76.0257 213.976 77.2914 214.431C78.3461 215.037 79.1899 213.825 79.1899 212.158C79.1899 209.886 78.1351 209.128 76.0257 209.583C73.9162 210.34 72.6505 208.977 71.8067 204.886C71.1739 201.856 70.1191 197.765 69.4863 195.796C69.0644 193.978 69.4863 192.463 70.752 192.463C71.8067 192.463 72.8614 190.039 72.8614 187.009C72.8614 184.13 72.0177 182.009 70.9629 182.615C69.6972 183.069 67.7987 182.16 66.533 180.797C64.6345 178.676 64.4235 179.888 65.2673 186.403C65.6892 190.948 66.9549 196.099 67.7987 197.614C68.8534 199.432 68.6425 200.189 67.1659 199.583C65.9002 198.977 64.4235 196.553 63.5797 193.978C62.9469 191.251 61.4703 189.584 60.2046 190.19C59.1498 190.645 58.0951 189.736 58.0951 187.918C58.0951 185.797 58.9389 185.039 60.8374 185.797C62.525 186.706 62.525 186.251 60.4155 184.433C58.7279 182.918 57.8842 179.433 58.517 175.797C58.9389 172.464 58.517 169.737 57.6732 169.737C56.6185 169.737 55.7747 172.313 55.5637 175.343ZM70.1191 189.736C69.4863 190.796 69.0644 190.039 69.0644 187.918C69.0644 185.797 69.4863 185.039 70.1191 185.948C70.541 187.009 70.541 188.827 70.1191 189.736Z" fill="black"/>
<path id="Vector_4" d="M60.4154 179.736C60.4154 181.403 61.0482 181.857 61.6811 180.645C62.3139 179.585 62.103 178.221 61.4701 177.767C60.8373 177.161 60.2045 178.07 60.4154 179.736Z" fill="black"/>
<path id="Vector_5" d="M73.9161 196.25C73.2832 200.19 73.0723 203.674 73.4942 203.977C74.127 204.432 75.1817 201.553 76.0255 197.765C76.6584 193.826 76.8693 190.342 76.4474 190.039C75.8146 189.584 74.7598 192.463 73.9161 196.25Z" fill="black"/>
<path id="Vector_6" d="M79.8225 197.614C80.6662 202.159 80.4553 204.432 79.1896 203.826C77.9239 203.371 77.0801 203.826 77.0801 205.189C77.0801 206.401 77.9239 207.613 78.9787 207.916C80.0334 208.068 81.51 210.795 82.1429 213.673C83.4086 217.764 83.1976 218.37 81.2991 216.703C79.6115 214.885 79.4006 215.491 80.4553 218.976C81.2991 221.4 82.7757 224.885 83.8304 226.551C85.518 229.278 85.518 229.278 84.6742 226.097C84.0414 223.976 84.8852 222.764 86.5728 222.764C88.8932 222.764 88.8932 223.824 87.4166 227.612C84.6742 234.732 85.3071 238.065 88.4713 232.005L91.0027 226.854L95.6435 232.46C98.1749 235.49 100.284 238.671 100.284 239.58C100.284 240.338 101.339 240.944 102.394 240.944C103.659 240.944 104.503 240.338 104.503 239.58C104.503 238.671 103.659 237.611 102.394 237.156C101.339 236.702 100.284 235.49 100.284 234.732C100.284 233.823 101.339 233.672 102.605 234.278C104.081 234.884 104.503 234.278 103.659 232.157C101.55 227.46 99.6515 217.915 99.6515 212.31C99.6515 207.916 99.2296 207.613 96.9092 209.886C94.5888 212.158 94.1669 211.704 93.3231 206.704L92.4793 200.795L92.2683 206.553C92.0574 209.734 93.1121 213.825 94.7997 215.643C98.5968 220.036 101.339 230.945 98.3858 229.581C97.1201 229.127 96.0654 226.4 95.8544 223.824C95.8544 220.036 95.4325 219.582 94.1669 221.854C92.9012 224.127 92.2683 224.279 91.4245 222.612C90.7917 221.4 90.1589 219.885 90.1589 219.279C89.9479 218.673 88.2603 217.006 86.3618 215.643C83.8304 213.673 83.1976 211.249 83.8304 205.038C84.4633 199.886 84.0414 197.614 82.9867 198.826C81.51 200.189 81.2991 199.432 81.9319 196.553C82.3538 194.281 81.9319 192.008 80.6662 191.402C79.1896 190.796 78.9787 192.917 79.8225 197.614Z" fill="black"/>
<path id="Vector_7" d="M190.57 197.008C188.039 201.402 186.562 215.491 188.882 214.431C190.148 213.825 190.992 215.037 190.992 217.309C190.992 219.43 190.148 221.249 188.882 221.249C187.828 221.249 186.773 223.067 186.984 225.339L187.195 229.581L188.882 225.794C190.359 222.764 190.57 223.37 190.781 229.127C190.992 233.217 190.148 236.399 188.882 236.399C187.828 236.399 186.773 237.156 186.773 238.065C186.773 238.823 187.828 239.126 189.093 238.52C190.992 237.762 191.203 238.671 190.148 241.55C189.304 243.823 189.726 245.489 190.992 245.489C192.047 245.489 193.101 242.762 193.101 239.58C193.101 236.247 194.156 233.066 195.211 232.611C196.476 232.157 197.109 228.521 197.109 224.582C196.898 219.43 196.476 218.521 195.422 221.249C194.789 223.37 193.734 218.37 193.101 209.886C192.469 201.553 191.414 195.796 190.57 197.008Z" fill="black"/>
<path id="Vector_8" d="M87.8385 200.795C87.8385 202.462 86.9947 205.492 86.3619 207.613C85.3072 210.492 85.5181 210.946 87.4166 209.734C88.8933 208.825 89.7371 205.795 89.1042 202.916C88.6823 200.038 88.0495 199.129 87.8385 200.795Z" fill="black"/>
<path id="Vector_9" d="M178.546 211.552C178.335 217.158 177.702 222.309 177.069 223.066C176.437 223.672 177.069 224.278 178.124 224.278C179.601 224.278 180.445 228.066 180.445 233.52C180.445 240.792 179.812 242.61 177.491 242.004C175.593 241.398 174.327 242.61 173.694 245.489C173.061 248.671 173.694 250.034 176.437 250.489C181.288 251.398 182.554 250.337 182.554 245.186C182.554 242.762 183.609 239.429 184.664 237.914C186.984 234.884 183.398 204.886 180.445 202.613C179.601 202.007 178.757 205.946 178.546 211.552ZM177.702 247.307C177.069 248.519 176.437 248.065 176.437 246.398C176.226 244.731 176.859 243.822 177.491 244.428C178.124 244.883 178.335 246.247 177.702 247.307Z" fill="black"/>
<path id="Vector_10" d="M167.999 212.31C166.311 215.188 165.889 217.461 167.155 218.067C170.53 219.582 167.788 239.429 164.412 239.429C162.725 239.429 161.459 240.186 161.459 241.095C161.459 241.853 162.514 242.156 163.78 241.55C165.467 240.944 165.678 241.55 164.623 243.823C163.991 245.489 164.202 248.065 165.256 249.428C166.733 251.398 167.999 250.186 170.53 244.277C174.327 236.399 174.749 227.309 172.429 214.734L170.952 207.462L167.999 212.31Z" fill="black"/>
<path id="Vector_11" d="M145.638 215.946C146.06 219.279 147.115 225.945 147.959 230.642C149.013 236.853 148.592 239.429 146.904 239.429C145.638 239.429 144.373 237.156 144.373 234.429C143.951 225.49 142.685 220.794 140.576 219.279C138.888 218.067 138.466 221.4 139.099 229.733L139.943 241.701L146.482 241.55C151.545 241.55 152.811 242.004 152.178 243.822C151.545 245.186 152.811 248.519 154.92 251.398C158.717 256.397 158.928 256.549 161.248 253.519C162.936 251.246 162.936 249.125 161.459 246.701C159.35 243.519 159.35 243.671 160.405 247.761L161.459 252.307L157.662 247.155C155.553 244.125 154.92 241.701 156.186 241.398C157.451 241.095 158.084 235.793 157.662 228.066C157.24 219.127 157.662 215.188 159.35 215.188C160.616 215.188 161.248 215.643 160.616 216.4C160.194 217.006 160.405 219.885 161.459 222.763C163.147 227.763 163.147 227.611 163.358 220.188C163.569 212.613 163.358 212.31 158.928 213.522C154.287 214.734 154.076 215.643 154.709 227.157C155.131 233.823 154.498 239.429 153.443 239.429C152.389 239.429 151.545 236.247 151.334 232.157C151.123 228.217 149.646 221.551 147.748 217.461C144.794 210.189 144.794 210.037 145.638 215.946Z" fill="black"/>
<path id="Vector_12" d="M106.613 215.34C106.613 216.097 105.769 216.552 104.714 216.097C102.605 215.188 103.027 223.824 105.347 225.339C105.98 225.794 106.613 227.612 106.613 229.127C106.613 230.642 107.878 231.854 109.355 231.854C110.832 231.854 113.152 233.672 114.629 235.944C119.691 244.58 124.754 249.883 128.129 250.489C133.614 251.549 134.247 247.61 129.606 240.035C126.02 233.823 126.02 233.217 128.973 235.035C132.348 237.005 132.559 236.702 131.083 231.854C130.239 228.975 128.973 224.279 128.34 221.552C126.442 214.128 123.91 215.794 124.754 223.824C125.598 231.248 124.754 231.248 122.645 223.824C120.957 218.824 117.16 218.37 117.16 223.067C117.16 225.339 117.793 225.945 118.848 224.582C119.902 223.521 120.746 225.945 120.746 230.339C120.746 234.429 120.113 237.914 119.059 237.914C116.316 237.914 114.418 227.763 115.894 220.794C117.793 212.764 113.996 214.885 111.043 223.521C109.566 228.218 109.144 228.672 108.722 225.794C108.511 223.673 108.511 220.188 108.722 217.764C108.933 215.491 108.511 213.673 107.878 213.673C107.246 213.673 106.613 214.431 106.613 215.34ZM129.184 247.459C128.973 248.216 126.864 247.156 124.965 244.883C122.856 242.611 121.801 240.187 122.645 239.278C124.121 237.459 130.239 245.186 129.184 247.459Z" fill="black"/>
<path id="Vector_13" d="M131.294 214.885C130.239 215.946 130.661 220.491 131.926 225.188C133.192 229.733 133.825 234.581 133.192 235.793C132.559 237.156 133.403 240.035 135.091 242.459C138.677 247.459 139.31 250.64 136.145 249.277C133.403 248.065 133.403 250.034 136.145 253.064C138.044 255.034 138.255 255.034 138.255 253.064C138.255 251.095 138.466 251.095 140.364 253.064C142.052 254.731 142.263 254.125 141.208 250.943C140.153 247.762 140.364 246.853 142.263 247.61C143.529 248.216 144.583 250.489 144.794 252.761C144.794 256.397 145.005 256.549 146.693 253.822C148.591 250.792 148.591 250.792 148.802 253.822C149.013 256.7 149.013 256.7 151.123 253.973C152.599 252.307 152.81 250.792 151.545 250.186C150.49 249.731 147.958 247.61 146.06 245.489C143.95 243.368 142.474 242.762 142.474 243.974C142.474 248.519 137.622 242.61 136.778 236.853C134.247 218.37 132.77 213.067 131.294 214.885Z" fill="black"/>
<path id="Vector_14" d="M176.647 233.369C176.647 236.247 177.069 237.459 177.702 235.944C178.124 234.581 178.124 232.157 177.702 230.642C177.069 229.278 176.647 230.49 176.647 233.369Z" fill="black"/>
<path id="Vector_15" d="M163.991 234.126C163.991 236.55 164.413 237.459 165.045 235.944C165.467 234.581 165.467 232.46 165.045 231.399C164.413 230.49 163.991 231.551 163.991 234.126Z" fill="black"/>
<path id="Vector_16" d="M104.504 236.247C104.504 237.005 105.98 238.368 107.668 239.429C109.355 240.489 110.832 242.307 110.832 243.519C110.832 244.731 111.676 245.337 112.731 244.731C113.996 244.277 115.684 245.186 116.949 246.549C118.215 248.064 119.27 248.519 119.27 247.761C119.27 245.489 108.933 234.884 106.613 234.884C105.347 234.884 104.504 235.49 104.504 236.247Z" fill="black"/>
</g>
</g>

    </svg>
