
    <svg width="256" height="256" viewBox="0 0 256 256" fill="none" xmlns="http://www.w3.org/2000/svg">
        
<g id="Frame 41">
<rect width="256" height="256" fill="#FF4D4D"/>
</g>

        
<g id="head">
<path id="Vector" d="M36.7332 45.6036C36.5521 45.9054 36.7936 47.1125 37.2764 48.2593C37.7593 49.4061 38.0007 50.915 37.8196 51.5789C37.6386 52.2428 37.7593 53.631 38.1214 54.5967C38.9061 56.8903 37.9403 57.856 34.5 58.2182C33.5946 58.3389 34.0171 60.0892 34.9829 60.0892C35.4657 60.0892 35.7071 60.3306 35.5261 60.6928C35.345 60.9946 35.4657 61.2964 35.8882 61.2964C36.3107 61.2964 36.4314 61.8999 36.3107 62.8053C36.1296 63.6503 36.19 64.3142 36.3711 64.3142C36.7936 64.3142 37.2764 73.4281 37.0953 77.2909C36.6728 86.0427 36.7332 86.767 37.6386 87.2498C38.3025 87.6723 38.3025 87.793 37.7593 87.8534C37.2764 87.8534 37.035 88.2155 37.2161 88.5777C37.3368 89.0002 37.035 90.2677 36.6125 91.4145L35.7071 93.4666L37.2764 92.4405C38.7853 91.4748 38.8457 91.4748 38.8457 92.6216C38.8457 93.4062 38.5439 93.708 38.0007 93.5269C37.5178 93.3459 36.9746 93.4666 36.7332 93.8287C36.5521 94.1909 36.8539 94.4927 37.4575 94.4927C38.3025 94.4927 38.3628 94.6134 37.7593 95.0359C36.6125 95.6998 36.7332 96.4844 38.0611 96.9673C39.0268 97.3898 39.0268 97.4501 37.88 97.4501C36.6125 97.5105 36.3711 98.1744 36.4918 101.434C36.4918 102.399 36.6125 104.27 36.6125 105.538C36.6728 106.987 36.9746 107.711 37.3971 107.53C37.8196 107.349 38.3025 107.65 38.4836 108.133C38.725 108.858 38.5439 108.978 37.6386 108.677C36.9746 108.435 36.4314 108.556 36.4314 108.918C36.4314 109.28 36.7332 109.582 37.035 109.582C37.4575 109.582 37.4575 109.944 37.035 110.789C36.2503 112.298 36.8539 112.358 38.4836 110.91C39.5096 110.065 39.6303 110.065 38.9664 110.91C38.5439 111.453 38.4232 111.996 38.725 112.117C38.9664 112.177 38.8457 112.962 38.3628 113.807C37.5782 115.195 37.5782 115.195 37.8196 113.928C38.0007 113.203 37.88 112.6 37.5782 112.6C36.7332 112.6 36.9746 114.773 37.9403 115.618C38.6043 116.161 38.8457 118.696 38.9664 128.293C39.0871 134.871 38.9664 140.122 38.7853 140.002C38.1818 139.64 38.3025 144.046 38.9061 145.736C39.2682 146.52 39.5096 148.693 39.5096 150.444C39.57 152.254 39.8718 154.005 40.2943 154.427C40.6564 154.85 40.8978 156.721 40.8375 159.014C40.7168 162.273 40.8375 162.756 41.6221 162.455C42.1653 162.273 42.7085 162.092 42.8292 162.092C43.0103 162.092 42.95 161.791 42.7689 161.489C42.5878 161.127 42.6482 160.885 42.95 160.885C43.8553 160.885 46.3299 165.955 46.2092 167.525C45.9678 169.456 46.9939 171.448 49.7099 174.345C50.8567 175.612 52.4864 177.785 53.3313 179.234C54.8403 181.829 55.9871 183.157 60.2724 187.503C61.7813 189.012 62.6263 190.339 62.5056 191.124C62.3849 191.909 63.1092 193.116 64.7388 194.564C66.127 195.832 67.2134 196.979 67.2134 197.16C67.2134 197.401 68.8431 199.212 70.8348 201.204C72.8266 203.256 74.4563 205.308 74.4563 205.73C74.4563 206.877 77.7759 209.895 78.3795 209.352C78.6209 209.05 78.6812 209.171 78.5002 209.593C78.0777 210.197 83.2684 215.75 84.898 216.414C85.3205 216.595 87.2519 217.802 89.2437 219.13C91.2355 220.458 93.2876 221.785 93.8308 222.147C100.168 226.01 102.402 227.278 104.393 227.881C105.661 228.304 107.592 229.028 108.679 229.511C109.705 229.934 110.972 230.296 111.515 230.296C112.059 230.296 113.085 230.96 113.809 231.805C114.533 232.65 116.042 233.434 117.249 233.676C120.207 234.159 122.078 235.124 121.776 236.03C121.535 236.573 122.561 236.875 124.975 237.176C132.278 237.961 136.081 238.685 137.046 239.47C137.469 239.832 138.193 239.832 138.917 239.41C139.521 239.047 142.599 238.746 145.677 238.685C151.713 238.565 152.437 238.323 162.517 232.951C164.629 231.805 167.164 230.899 168.07 230.899C170.001 230.899 170.967 229.813 169.76 229.028C168.734 228.425 166.561 228.907 163.784 230.356C156.481 234.159 151.834 235.849 147.428 236.331C142.539 236.875 136.926 236.633 134.149 235.728C133.304 235.486 130.83 235.366 128.657 235.547C126.061 235.788 124.552 235.667 124.311 235.185C123.828 234.46 124.311 234.34 128.053 234.521C129.502 234.581 130.588 234.34 130.588 233.977C130.588 233.615 130.588 233.132 130.588 232.831C130.588 232.589 129.441 232.408 127.993 232.348C119.664 232.287 117.491 232.046 116.344 231.141C115.74 230.658 115.499 230.356 115.861 230.537C116.766 230.96 119.12 229.209 119.12 228.123C119.12 227.157 117.853 226.976 116.948 227.881C116.042 228.787 109.463 227.942 109.463 226.976C109.463 225.648 107.713 224.562 106.928 225.346C105.842 226.433 105.178 226.252 101.677 223.958C99.9269 222.811 97.8747 221.665 97.0901 221.484C95.219 221.001 90.7526 217.138 90.7526 215.991C90.7526 215.388 90.4508 215.206 89.7266 215.508C87.7951 216.233 87.4934 216.112 87.2519 214.844C87.1312 214.12 85.3809 211.947 83.3287 210.016C81.2766 208.084 78.5002 205.127 77.2327 203.437C75.9652 201.807 73.3095 198.789 71.3781 196.798C66.7306 191.969 64.7388 189.494 65.2217 189.012C65.4631 188.83 64.1956 187.261 62.5056 185.632C60.7552 183.942 59.367 182.433 59.367 182.131C59.367 181.769 54.4178 176.216 50.5549 172.232C50.0117 171.689 49.7703 170.965 49.9514 170.663C50.2531 170.12 47.1146 163.3 45.6057 161.247C44.9417 160.342 43.6742 155.332 43.0103 151.228C42.7689 149.417 42.286 146.339 41.9239 144.408C41.6221 142.537 41.3203 132.035 41.3203 121.17C41.3203 99.623 40.8375 86.5255 39.9925 80.9124C39.3889 77.1702 39.6907 53.9328 40.2943 52.9068C40.5357 52.605 40.415 52.1825 40.1132 52.0014C39.8114 51.76 39.6907 50.1303 39.8718 48.3196C40.2339 45.0604 40.1735 45 38.6646 45C37.8196 45 36.9746 45.2414 36.7332 45.6036ZM38.4232 99.1401C38.1818 99.6833 38.3025 99.9851 38.6043 99.7437C38.9664 99.5626 39.2682 100.227 39.3285 101.192C39.3889 102.158 39.1475 102.943 38.8457 102.943C38.4836 102.943 38.3628 102.641 38.5439 102.339C38.725 101.977 38.4836 101.735 38.0007 101.735C37.4575 101.735 37.035 101.615 37.035 101.494C37.035 100.83 38.2421 98.1141 38.4836 98.1141C38.6646 98.1141 38.6043 98.5366 38.4232 99.1401Z" fill="black"/>
<path id="Vector_2" d="M205.129 51.0357C204.948 51.3374 204.948 52.6049 205.189 53.7517C205.431 55.1399 205.31 56.2263 204.827 56.7696C204.224 57.4938 204.224 58.0974 204.646 59.0631C206.759 63.4088 207.241 65.0988 207.241 67.5734C207.241 69.0824 207.422 70.3499 207.724 70.3499C208.267 70.3499 208.509 74.937 208.75 92.6819C209.052 112.962 210.259 126.784 211.768 126.301C212.432 126.059 212.372 124.43 211.104 115.98C209.957 107.771 209.957 97.088 211.104 97.088C212.07 97.088 212.372 98.8383 212.975 108.978C213.156 112.117 213.458 115.497 213.579 116.523C213.881 118.816 214.605 129.5 214.545 130.707C214.303 135.052 214.484 136.803 215.39 138.191C215.993 139.036 216.174 139.76 215.812 139.76C215.51 139.76 215.269 140.424 215.269 141.269C215.269 142.054 215.39 142.657 215.631 142.537C215.933 142.356 215.933 147.848 215.691 154.85C215.631 155.695 215.872 158.048 216.114 160.04C216.536 162.696 216.416 164.386 215.872 166.016C215.39 167.343 215.329 168.611 215.631 169.214C215.933 169.758 215.752 170.904 215.027 172.293C214.424 173.5 213.519 176.035 212.915 177.966C212.251 180.32 211.104 182.252 209.595 183.821C208.267 185.149 207.241 186.537 207.241 186.899C207.241 187.261 206.578 188.408 205.733 189.494C204.888 190.581 204.224 191.667 204.224 191.969C204.224 192.21 203.56 192.935 202.715 193.599C200.844 195.047 200.663 196.737 202.413 196.194C203.922 195.711 203.922 196.496 202.413 199.453C201.809 200.721 201.447 201.928 201.628 202.169C201.87 202.35 201.689 202.531 201.326 202.531C200.964 202.531 200.481 203.135 200.24 203.859C199.878 205.006 197.162 209.05 195.291 211.283C194.566 212.128 189.617 216.293 184.608 220.397C182.314 222.268 179.779 224.441 179.055 225.226C177.244 227.157 169.217 232.287 167.708 232.469C164.69 232.831 158.835 236.392 159.801 237.357C159.982 237.599 161.008 237.176 161.974 236.392C163 235.667 164.267 235.124 164.871 235.185C165.414 235.305 166.863 235.124 168.009 234.822C169.156 234.581 170.544 234.279 171.027 234.219C171.51 234.159 174.528 232.891 177.667 231.322C182.193 229.149 184.064 227.881 186.418 225.226C188.108 223.355 191.79 219.492 194.627 216.534C198.49 212.551 199.938 210.68 200.24 209.05C200.421 207.903 201.145 206.455 201.809 205.851C202.473 205.248 203.016 204.282 203.016 203.739C203.016 203.195 203.62 201.988 204.405 201.083C205.189 200.238 206.578 197.944 207.543 196.073C208.569 194.142 209.957 191.728 210.742 190.702C211.466 189.675 212.07 188.649 212.07 188.468C212.07 188.227 213.156 185.692 214.545 182.795C216.174 179.294 217.08 176.457 217.2 174.466C217.321 172.836 217.804 170.18 218.347 168.551C218.83 166.981 219.132 165.714 218.951 165.714C218.77 165.714 218.951 165.231 219.252 164.627C219.615 163.963 220.037 161.489 220.218 159.014C220.399 156.54 220.701 153.823 220.882 152.918C221.184 151.53 220.942 151.107 219.735 150.685C218.347 150.142 218.287 149.9 218.709 147.848C219.011 146.581 219.132 145.373 219.011 145.192C218.89 145.011 218.709 142.235 218.649 139.096C218.589 136.018 218.347 132.94 218.045 132.397C217.744 131.854 217.381 130.103 217.261 128.474C216.838 124.49 215.209 109.159 214.484 102.943C214.182 100.106 213.881 94.7944 213.82 91.0523C213.76 85.6805 213.519 83.8698 212.613 82.1798C211.829 80.6709 211.466 78.7998 211.466 76.2045C211.466 71.7381 210.501 65.8231 209.354 63.7106C207.845 60.8135 207.181 57.011 207.604 53.6914C207.966 50.6735 207.905 50.4321 206.759 50.4321C206.034 50.4321 205.31 50.6735 205.129 51.0357ZM211.466 90.5694C211.044 91.0523 210.44 91.4748 210.139 91.4748C209.776 91.4748 209.837 91.0523 210.259 90.5694C210.682 90.0866 211.285 89.6641 211.587 89.6641C211.949 89.6641 211.889 90.0866 211.466 90.5694ZM212.251 92.5008C211.829 92.6216 211.466 93.2855 211.466 93.8891C211.466 95.3376 210.501 95.9412 210.018 94.7944C209.475 93.3458 210.259 92.0784 211.708 92.1387C212.372 92.1387 212.613 92.3198 212.251 92.5008ZM219.313 154.85C219.313 156.781 218.77 158.471 218.166 158.471C217.985 158.471 217.804 157.143 217.804 155.513C217.804 153.401 217.985 152.677 218.528 152.858C218.951 153.039 219.313 153.944 219.313 154.85ZM218.709 160.704C218.709 161.549 217.562 162.998 217.2 162.636C216.717 162.153 217.502 160.282 218.166 160.282C218.468 160.282 218.709 160.463 218.709 160.704ZM210.561 187.08C209.535 189.253 208.449 189.977 208.449 188.408C208.449 187.442 210.863 184.243 211.285 184.666C211.466 184.787 211.104 185.873 210.561 187.08ZM208.026 192.15C207.905 192.754 207.181 194.021 206.396 194.927C205.189 196.496 205.069 196.496 205.008 195.349C204.948 194.625 205.129 194.082 205.491 194.082C205.793 194.082 206.034 193.538 206.034 192.935C206.034 191.909 206.698 191.245 207.966 191.124C208.147 191.064 208.207 191.547 208.026 192.15ZM188.531 219.431C188.531 220.216 183.702 225.467 183.038 225.467C182.737 225.467 181.529 226.433 180.443 227.58C178.33 229.752 177.425 230.115 176.761 229.089C176.52 228.726 176.822 228.666 177.425 228.907C178.089 229.149 178.33 229.028 178.089 228.666C177.908 228.364 178.391 227.7 179.175 227.278C180.02 226.855 180.684 226.131 180.684 225.709C180.684 225.346 181.288 224.562 182.073 224.079C182.797 223.536 184.487 222.147 185.754 221.001C188.35 218.647 188.531 218.526 188.531 219.431Z" fill="black"/>
</g>

        
<g>
<path d="M66.8402 17.6126C64.1798 20.2735 64.771 27.3693 67.727 27.3693C71.2742 27.3693 74.2302 19.0909 71.2742 17.3169C69.7962 16.43 68.0226 16.43 66.8402 17.6126Z" fill="black"/>
<path d="M102.608 18.4996C96.6961 19.6822 90.784 21.4561 89.6016 22.6388C86.9412 25.0041 111.181 21.4561 119.753 18.2039C125.665 15.8386 125.665 15.8386 119.753 16.1343C116.501 16.1343 108.816 17.3169 102.608 18.4996Z" fill="black"/>
<path d="M59.1547 28.5517C63.8843 33.8735 64.7711 35.9431 61.5195 34.7605C58.8591 33.5779 55.9031 34.1692 54.7206 35.9431C53.8338 37.7171 54.7206 39.1954 56.7899 39.491C58.8591 39.491 63.5887 40.0824 67.1359 40.9693C70.6832 41.5607 74.526 40.6737 75.4128 39.1954C76.2996 37.4214 81.3248 36.2388 86.0545 36.2388C91.0797 36.2388 94.3313 35.0562 93.4445 33.5779C91.0797 30.03 110.294 26.7777 126.848 27.6647C146.357 28.8473 143.401 31.8039 122.709 31.8039C110.294 31.8039 102.608 33.2822 99.9478 35.9431C96.6961 39.491 96.9918 39.7867 100.539 38.6041C106.155 36.5345 118.275 40.9693 118.275 45.1086C118.275 47.1782 116.501 47.4738 113.25 45.6999C105.269 41.5607 87.2369 38.8997 81.6204 40.9693C72.1612 44.5173 77.1864 46.8825 94.0357 46.2912C104.382 45.9956 108.52 46.5869 104.973 48.0652C100.243 49.8391 99.9478 50.4304 103.495 51.6131C105.86 52.5001 104.973 52.5001 101.426 52.2044C95.8093 51.0218 95.2181 52.2044 96.4005 59.0046C97.583 65.8047 97.2874 66.396 93.4445 62.8481C90.7841 60.7785 89.6017 57.8219 90.4885 56.3436C93.1489 52.2044 85.4633 47.7695 79.2556 49.8391C76.5952 50.4304 73.6392 49.8391 72.4568 48.0652C71.57 46.5869 68.9096 45.1086 67.1359 45.1086C64.7711 45.1086 64.7711 45.9956 67.4315 47.7695C70.3876 49.5435 69.5008 50.7261 63.8843 51.6131C57.3811 53.0914 56.7899 52.5001 59.4503 47.1782C62.1107 42.7433 61.8151 41.8563 58.8591 42.7433C56.7899 43.3346 53.5382 49.5435 51.7646 56.3436C50.2866 63.1438 47.035 70.2396 45.2614 72.3092C40.5317 76.7441 40.2361 103.945 44.6702 110.154C46.7394 113.406 47.3306 109.267 46.1482 95.3706C44.6702 77.9267 44.6702 77.0398 48.2174 85.6139C52.3558 96.2576 57.6767 102.762 55.3119 93.8923C54.425 90.6401 52.6514 83.8399 51.7646 79.1094L49.6954 70.2396L55.3119 77.0398L60.9283 83.8399L59.7459 71.4222C58.2679 58.4132 61.5195 53.9784 72.7524 53.9784C81.916 53.9784 99.9478 75.8571 97.8786 84.4313C97.583 85.9095 98.7654 86.2052 100.243 85.3182C101.721 84.4313 102.313 78.5181 101.426 72.0136C99.3566 57.8219 104.677 53.6827 109.111 66.396C110.885 71.4222 112.954 74.9702 113.841 74.0832C114.728 73.1962 114.137 68.7613 112.363 64.3264C110.589 59.8915 109.998 55.4566 110.589 54.5697C111.476 53.6827 113.545 56.6393 115.023 61.0742C116.797 65.2134 118.866 68.7613 119.458 68.7613C122.118 68.7613 117.684 58.7089 112.954 53.0914C110.589 50.4304 109.703 48.0652 111.476 48.0652C116.501 48.0652 130.395 60.1872 136.602 69.9439L142.219 79.1094L140.445 69.057C138.672 61.0742 139.263 59.5959 142.219 61.6655C147.244 64.6221 123.596 42.152 116.206 36.8301C111.476 33.5779 111.772 33.2822 118.275 35.0562C127.734 37.7171 147.54 37.7171 156.703 35.0562C161.729 33.5779 162.615 33.8735 160.251 35.6475C156.999 37.7171 157.295 38.8997 161.433 40.378C164.093 41.265 165.571 43.039 164.685 44.2216C163.502 45.1086 160.842 44.2216 158.181 42.152C155.521 40.0824 152.861 39.1954 151.678 40.0824C150.791 41.265 154.634 43.9259 160.546 46.5869C178.578 53.9784 185.377 71.4222 176.804 87.3878C173.848 93.0054 174.144 93.301 177.987 90.0488C180.647 87.9792 183.603 81.4747 184.786 75.8571C186.264 66.6917 185.081 63.4394 176.213 51.9087C166.458 39.1954 166.163 38.0128 170.892 34.4648C173.553 32.3952 177.396 30.6213 178.874 30.3256C180.647 30.3256 180.056 31.5083 177.691 32.9866C175.326 34.4648 172.961 38.3084 172.666 41.265C172.075 45.9956 172.37 45.9956 175.326 41.5607C178.282 37.1258 179.169 37.1258 185.968 41.5607C190.106 44.2216 194.54 47.7695 195.723 49.5435C197.201 51.3174 199.861 50.4304 203.113 46.8825C206.069 43.9259 206.66 42.152 204.887 43.3346C202.817 44.5173 201.044 44.2216 201.044 42.7433C201.044 40.9693 197.792 38.8997 193.654 38.0128C188.628 36.8301 186.855 34.7605 188.037 32.3952C189.22 30.3256 189.22 29.7343 187.742 30.9169C186.559 32.0996 183.899 31.8039 181.83 30.3256C180.056 28.8473 161.729 26.482 141.036 25.5951C110.294 23.8211 101.426 24.4124 91.0797 28.256C77.482 33.2822 70.9788 33.5779 64.7711 28.5517C55.0163 21.1602 52.3558 21.1602 59.1547 28.5517ZM152.861 32.0996C151.974 32.9866 149.313 33.2822 147.244 32.3952C144.879 31.5083 145.766 30.6213 149.018 30.6213C152.269 30.3256 154.043 31.2126 152.861 32.0996ZM87.2369 56.3436C86.3501 57.2306 83.9853 56.3436 81.916 54.274C79.2556 51.3174 79.5512 51.0218 83.6897 52.7957C86.6457 53.6827 88.1237 55.4566 87.2369 56.3436Z" fill="black"/>
<path d="M78.3689 27.3694C77.4821 28.8477 77.7777 30.326 79.5513 30.326C81.0293 30.326 83.3942 28.8477 84.281 27.3694C85.1678 25.5955 84.8722 24.4128 83.0986 24.4128C81.6205 24.4128 79.2557 25.5955 78.3689 27.3694Z" fill="black"/>
<path d="M40.8273 29.4391C36.0976 30.0304 32.5504 31.8043 32.5504 32.987C32.5504 34.7609 41.1229 35.0566 52.6514 33.8739C54.7206 33.5783 55.6074 31.8043 54.7206 30.326C53.8338 28.5521 52.0602 27.6651 50.8778 27.6651C49.6954 27.9608 45.2613 28.8477 40.8273 29.4391Z" fill="black"/>
<path d="M39.3492 44.813C31.9592 51.0218 20.4307 77.3355 21.0219 87.3879C21.3175 92.4141 21.9087 91.8228 23.6823 85.0226L25.7515 76.1529L27.8207 87.9792C31.0724 105.127 31.9592 106.901 32.5504 96.849C32.846 89.1619 33.4372 88.8662 35.2108 93.8924C36.9844 98.0316 37.5756 94.7794 37.8712 83.5443C37.8712 67.8744 37.5756 67.8744 34.0284 76.1529C29.0031 87.3879 28.7075 83.84 33.1416 66.3961C36.3932 53.9784 36.9844 53.0914 38.758 59.8916L40.8272 67.2831L41.1228 59.0046C41.4184 54.5697 43.1921 50.1349 45.5569 49.2479C51.1733 47.1783 54.1294 39.1955 49.3997 39.1955C47.3305 39.4911 42.8965 41.8564 39.3492 44.813Z" fill="black"/>
<path d="M176.213 44.8129C175.031 46.2912 177.691 50.1347 182.125 53.0913C186.264 56.0479 193.062 61.3698 197.496 64.622C204.591 70.5352 205.773 70.5352 209.321 66.1003C211.39 63.4394 212.572 62.8481 211.685 64.3264C211.094 66.1003 214.346 70.2396 219.075 73.1962C223.805 76.4484 229.126 82.9529 231.195 87.6835C232.969 92.414 235.334 94.7793 235.925 93.0053C236.516 91.2314 233.56 81.7703 229.126 72.3092C220.553 53.387 209.616 44.2216 203.408 50.4304C200.748 53.0913 200.748 54.8653 203.408 57.5262C205.478 59.5958 206.956 62.2568 206.956 63.7351C206.956 66.1003 193.654 56.6392 183.012 46.2912C179.76 43.6302 177.395 42.7433 176.213 44.8129ZM220.258 62.8481C219.371 64.3264 219.962 66.1003 221.736 67.283C223.214 68.1699 224.692 70.5352 224.692 72.3092C224.692 74.0831 222.918 74.0831 220.258 71.7179C217.597 69.6482 216.119 66.1003 217.006 63.7351C217.893 61.6654 216.711 59.8915 214.346 59.8915C211.981 59.8915 209.912 58.4132 209.912 56.9349C209.912 54.8653 211.981 54.8653 215.824 56.9349C219.075 58.7089 221.145 61.3698 220.258 62.8481Z" fill="black"/>
<path d="M44.6702 61.6658C44.6702 64.9181 45.557 65.805 46.4437 63.4398C47.3305 61.3702 47.0349 58.7092 46.1482 57.8222C45.2614 56.6396 44.3746 58.4136 44.6702 61.6658Z" fill="black"/>
<path d="M189.219 64.6222C189.219 66.3961 192.471 70.831 196.61 74.6746C201.635 79.4051 204 84.727 204 91.8228C204 105.127 206.956 102.467 207.547 88.8662C207.842 82.3617 209.32 78.5181 211.981 78.5181C214.641 78.5181 215.528 80.2921 214.346 83.2487C211.685 90.0488 211.685 90.0488 215.824 100.988C219.667 111.336 219.667 111.336 222.623 103.945C224.396 100.101 225.283 94.1881 224.987 90.9358C224.101 83.5443 209.32 69.3527 207.547 74.6746C206.66 76.7442 203.113 74.9702 197.792 69.944C193.062 65.5091 189.219 63.1439 189.219 64.6222ZM221.736 96.849C221.736 101.875 221.145 101.875 218.78 98.3273C217.302 95.962 215.824 91.2315 215.824 87.9792C215.824 82.953 216.415 82.953 218.78 86.5009C220.258 88.8662 221.736 93.5968 221.736 96.849Z" fill="black"/>
</g>

        
<g id="Frame 8">
<path id="Vector" d="M147.165 114.282C139.203 115.135 137.781 116.272 137.781 122.244C137.781 140.442 167.07 150.395 179.865 136.746C183.278 133.049 186.121 128.784 186.121 127.078C186.121 118.832 166.217 112.576 147.165 114.282ZM175.031 120.538C177.875 122.244 180.434 125.087 180.434 126.793C180.434 132.765 171.05 140.442 163.942 140.442C154.843 140.442 140.625 129.921 140.625 123.097C140.625 118.547 142.615 117.694 155.127 117.694C163.089 117.694 171.904 119.116 175.031 120.538Z" fill="black"/>
<path id="Vector_2" d="M154.842 126.225C154.842 127.647 156.833 129.068 159.392 129.068C161.667 129.068 162.804 127.647 161.951 126.225C161.098 124.519 159.108 123.381 157.402 123.381C155.98 123.381 154.842 124.519 154.842 126.225Z" fill="black"/>
<path id="Vector_3" d="M83.7548 119.969C74.6556 123.382 70.6747 126.794 70.106 131.059C68.6842 140.158 81.7644 146.13 97.4036 143.286C110.768 141.011 116.739 136.746 119.299 128.784C123.848 115.135 107.072 111.154 83.7548 119.969ZM110.484 119.401C117.024 121.96 116.171 130.775 108.778 135.893C98.2567 143.286 72.3808 140.443 72.3808 131.628C72.3808 128.784 82.3331 124.235 96.5506 120.538C101.385 119.401 105.365 118.263 105.65 117.979C105.934 117.695 107.925 118.548 110.484 119.401Z" fill="black"/>
<path id="Vector_4" d="M92.2853 129.068C92.2853 130.49 93.7071 131.912 95.1288 131.912C96.8349 131.912 97.9724 130.49 97.9724 129.068C97.9724 127.362 96.8349 126.225 95.1288 126.225C93.7071 126.225 92.2853 127.362 92.2853 129.068Z" fill="black"/>
</g>

        
<g id="Frame 24">
<path id="Vector" d="M127.512 137.586C126.876 138.434 125.394 143.305 124.123 148.388C122.217 154.741 120.099 158.13 116.499 159.4C110.992 161.518 105.91 169.143 108.875 170.837C109.933 171.472 111.204 170.202 111.84 167.872C112.475 165.542 115.44 162.789 118.405 161.73C122.429 160.036 124.547 156.859 126.876 148.599C129.842 138.434 130.265 133.139 127.512 137.586Z" fill="black"/>
<path id="Vector_2" d="M132.383 159.612C129.841 161.307 130.477 161.518 135.136 160.46C138.948 159.824 142.549 160.248 144.667 161.942C147.42 164.272 147.632 164.272 146.784 161.518C145.514 157.706 136.619 156.436 132.383 159.612Z" fill="black"/>
<path id="Vector_3" d="M118.617 167.872C117.981 168.931 118.829 169.99 120.523 169.99C122.217 169.99 124.335 168.931 124.97 167.872C125.606 166.601 124.759 165.754 123.064 165.754C121.37 165.754 119.252 166.601 118.617 167.872Z" fill="black"/>
<path id="Vector_4" d="M132.806 168.084C133.23 169.355 134.501 170.202 135.56 170.202C136.619 170.202 137.889 169.355 138.313 168.084C138.736 166.813 137.466 165.754 135.56 165.754C133.654 165.754 132.383 166.813 132.806 168.084Z" fill="black"/>
</g>

        
<g id="Frame 27">
<g id="Group 39">
<path id="Vector" d="M116.685 190.826C114.433 191.951 110.774 194.203 108.804 196.174C105.989 199.27 106.271 200.958 111.056 205.743C124.003 218.691 163.69 206.025 154.683 191.67C152.713 188.574 124.003 188.011 116.685 190.826ZM127.944 194.485C127.944 195.892 126.818 197.299 125.129 197.299C123.722 197.299 122.314 195.892 122.314 194.485C122.314 192.796 123.722 191.67 125.129 191.67C126.818 191.67 127.944 192.796 127.944 194.485ZM136.388 194.485C136.388 195.892 135.825 197.299 135.262 197.299C134.418 197.299 133.01 195.892 132.166 194.485C131.321 192.796 131.884 191.67 133.292 191.67C134.981 191.67 136.388 192.796 136.388 194.485ZM152.15 195.048C155.528 200.114 144.55 205.743 131.04 205.743C115.559 205.743 107.397 201.521 113.87 197.581C116.122 195.892 119.218 195.892 120.907 197.018C122.314 198.425 127.099 200.114 131.603 201.24C138.077 202.647 139.203 202.084 139.203 197.299C139.203 191.107 148.772 189.418 152.15 195.048Z" fill="black"/>
</g>
</g>

        
<g id="Frame 33">
<g id="Group 43">
<path id="Vector" d="M42.6958 145.951C40.7973 149.587 43.1177 179.282 45.6491 181.1C46.7038 181.858 47.5476 184.282 47.5476 186.554C47.5476 188.827 48.3914 191.099 49.4461 191.554C50.2899 192.008 52.3994 195.493 53.876 199.28C57.0402 207.613 60.2044 209.431 60.2044 203.068C60.2044 200.493 59.3607 198.674 58.3059 199.129C54.2979 200.947 49.0242 180.191 52.3994 176.252C53.2432 175.343 52.6103 170.04 50.9228 164.283C49.4461 158.526 48.3914 152.617 48.8133 151.102C49.0242 149.739 48.3914 148.527 47.5476 148.527C46.4929 148.527 45.4381 147.315 45.0163 145.8C44.3834 143.376 44.1725 143.376 42.6958 145.951ZM46.9148 165.495C46.4929 167.465 46.071 166.253 46.071 162.92C45.86 159.586 46.2819 158.071 46.9148 159.435C47.3367 160.95 47.3367 163.677 46.9148 165.495Z" fill="black"/>
<path id="Vector_2" d="M206.391 147.769C210.188 154.738 212.508 164.131 211.243 168.222C210.399 171.404 210.821 172.616 212.719 172.313C214.196 172.161 215.04 173.373 214.618 175.797C214.196 177.918 213.774 183.675 213.985 188.675C213.985 198.826 210.61 196.402 209.766 185.645L209.344 179.585L208.079 184.584C207.446 187.311 205.969 189.281 204.703 189.13C203.649 188.827 202.383 190.19 201.961 192.16C201.539 193.978 200.274 195.19 199.219 194.735C198.164 194.129 197.32 198.068 197.531 204.128C197.742 215.037 200.695 233.672 201.328 227.309C201.328 225.187 203.438 222.309 205.758 220.794C208.5 219.127 209.977 216.249 210.188 212.613C210.399 209.431 211.243 204.734 212.297 202.31C213.774 198.674 213.774 199.28 213.141 205.34C212.087 214.431 215.04 210.34 217.36 199.28C218.204 195.038 219.47 192.614 219.892 193.675C220.524 194.584 221.579 195.19 222.423 194.887C224.321 193.978 221.157 173.222 218.415 168.525C217.149 166.555 216.305 162.768 216.305 159.889C216.305 152.92 214.196 149.133 211.876 151.86C210.61 153.223 209.977 152.92 209.977 150.496C209.977 148.678 208.922 146.708 207.446 146.102C205.758 145.345 205.547 145.799 206.391 147.769ZM218.204 185.19C217.993 190.493 217.782 190.948 216.516 187.918C215.04 184.433 215.673 178.827 217.571 178.827C217.993 178.827 218.415 181.706 218.204 185.19ZM209.344 197.917C208.5 202.159 208.5 202.159 208.079 197.311C207.868 193.978 207.024 192.614 205.336 193.372C203.86 194.129 203.649 193.826 204.703 192.614C207.235 189.584 210.399 193.069 209.344 197.917ZM205.125 200.341C204.492 201.401 204.071 200.644 204.071 198.523C204.071 196.402 204.492 195.644 205.125 196.553C205.547 197.614 205.547 199.432 205.125 200.341ZM205.125 205.795C208.289 208.219 208.711 211.552 205.758 212.916C204.703 213.37 203.649 215.34 203.649 217.158C203.649 219.733 203.227 220.036 201.75 218.37C200.695 217.309 200.695 214.431 201.539 212.158C202.383 209.886 202.383 207.007 201.328 205.946C200.274 204.734 199.641 202.765 199.641 201.553C199.852 199.583 199.852 199.583 200.906 201.553C201.75 202.765 203.438 204.734 205.125 205.795Z" fill="black"/>
<path id="Vector_3" d="M55.5637 175.343C54.9309 185.645 56.1966 191.251 60.4155 196.705C62.525 199.735 64.4235 203.977 64.6345 206.098C64.6345 208.219 65.4783 211.249 66.533 212.916C68.0097 215.491 68.4315 215.34 68.4315 211.401C68.8534 205.189 72.2286 209.28 74.1271 217.764C74.76 221.4 76.2366 224.279 77.2914 224.279C79.6118 224.279 79.6118 224.582 77.2914 218.521C76.0257 215.491 76.0257 213.976 77.2914 214.431C78.3461 215.037 79.1899 213.825 79.1899 212.158C79.1899 209.886 78.1351 209.128 76.0257 209.583C73.9162 210.34 72.6505 208.977 71.8067 204.886C71.1739 201.856 70.1191 197.765 69.4863 195.796C69.0644 193.978 69.4863 192.463 70.752 192.463C71.8067 192.463 72.8614 190.039 72.8614 187.009C72.8614 184.13 72.0177 182.009 70.9629 182.615C69.6972 183.069 67.7987 182.16 66.533 180.797C64.6345 178.676 64.4235 179.888 65.2673 186.403C65.6892 190.948 66.9549 196.099 67.7987 197.614C68.8534 199.432 68.6425 200.189 67.1659 199.583C65.9002 198.977 64.4235 196.553 63.5797 193.978C62.9469 191.251 61.4703 189.584 60.2046 190.19C59.1498 190.645 58.0951 189.736 58.0951 187.918C58.0951 185.797 58.9389 185.039 60.8374 185.797C62.525 186.706 62.525 186.251 60.4155 184.433C58.7279 182.918 57.8842 179.433 58.517 175.797C58.9389 172.464 58.517 169.737 57.6732 169.737C56.6185 169.737 55.7747 172.313 55.5637 175.343ZM70.1191 189.736C69.4863 190.796 69.0644 190.039 69.0644 187.918C69.0644 185.797 69.4863 185.039 70.1191 185.948C70.541 187.009 70.541 188.827 70.1191 189.736Z" fill="black"/>
<path id="Vector_4" d="M60.4154 179.736C60.4154 181.403 61.0482 181.857 61.6811 180.645C62.3139 179.585 62.103 178.221 61.4701 177.767C60.8373 177.161 60.2045 178.07 60.4154 179.736Z" fill="black"/>
<path id="Vector_5" d="M73.9161 196.25C73.2832 200.19 73.0723 203.674 73.4942 203.977C74.127 204.432 75.1817 201.553 76.0255 197.765C76.6584 193.826 76.8693 190.342 76.4474 190.039C75.8146 189.584 74.7598 192.463 73.9161 196.25Z" fill="black"/>
<path id="Vector_6" d="M79.8225 197.614C80.6662 202.159 80.4553 204.432 79.1896 203.826C77.9239 203.371 77.0801 203.826 77.0801 205.189C77.0801 206.401 77.9239 207.613 78.9787 207.916C80.0334 208.068 81.51 210.795 82.1429 213.673C83.4086 217.764 83.1976 218.37 81.2991 216.703C79.6115 214.885 79.4006 215.491 80.4553 218.976C81.2991 221.4 82.7757 224.885 83.8304 226.551C85.518 229.278 85.518 229.278 84.6742 226.097C84.0414 223.976 84.8852 222.764 86.5728 222.764C88.8932 222.764 88.8932 223.824 87.4166 227.612C84.6742 234.732 85.3071 238.065 88.4713 232.005L91.0027 226.854L95.6435 232.46C98.1749 235.49 100.284 238.671 100.284 239.58C100.284 240.338 101.339 240.944 102.394 240.944C103.659 240.944 104.503 240.338 104.503 239.58C104.503 238.671 103.659 237.611 102.394 237.156C101.339 236.702 100.284 235.49 100.284 234.732C100.284 233.823 101.339 233.672 102.605 234.278C104.081 234.884 104.503 234.278 103.659 232.157C101.55 227.46 99.6515 217.915 99.6515 212.31C99.6515 207.916 99.2296 207.613 96.9092 209.886C94.5888 212.158 94.1669 211.704 93.3231 206.704L92.4793 200.795L92.2683 206.553C92.0574 209.734 93.1121 213.825 94.7997 215.643C98.5968 220.036 101.339 230.945 98.3858 229.581C97.1201 229.127 96.0654 226.4 95.8544 223.824C95.8544 220.036 95.4325 219.582 94.1669 221.854C92.9012 224.127 92.2683 224.279 91.4245 222.612C90.7917 221.4 90.1589 219.885 90.1589 219.279C89.9479 218.673 88.2603 217.006 86.3618 215.643C83.8304 213.673 83.1976 211.249 83.8304 205.038C84.4633 199.886 84.0414 197.614 82.9867 198.826C81.51 200.189 81.2991 199.432 81.9319 196.553C82.3538 194.281 81.9319 192.008 80.6662 191.402C79.1896 190.796 78.9787 192.917 79.8225 197.614Z" fill="black"/>
<path id="Vector_7" d="M190.57 197.008C188.039 201.402 186.562 215.491 188.882 214.431C190.148 213.825 190.992 215.037 190.992 217.309C190.992 219.43 190.148 221.249 188.882 221.249C187.828 221.249 186.773 223.067 186.984 225.339L187.195 229.581L188.882 225.794C190.359 222.764 190.57 223.37 190.781 229.127C190.992 233.217 190.148 236.399 188.882 236.399C187.828 236.399 186.773 237.156 186.773 238.065C186.773 238.823 187.828 239.126 189.093 238.52C190.992 237.762 191.203 238.671 190.148 241.55C189.304 243.823 189.726 245.489 190.992 245.489C192.047 245.489 193.101 242.762 193.101 239.58C193.101 236.247 194.156 233.066 195.211 232.611C196.476 232.157 197.109 228.521 197.109 224.582C196.898 219.43 196.476 218.521 195.422 221.249C194.789 223.37 193.734 218.37 193.101 209.886C192.469 201.553 191.414 195.796 190.57 197.008Z" fill="black"/>
<path id="Vector_8" d="M87.8385 200.795C87.8385 202.462 86.9947 205.492 86.3619 207.613C85.3072 210.492 85.5181 210.946 87.4166 209.734C88.8933 208.825 89.7371 205.795 89.1042 202.916C88.6823 200.038 88.0495 199.129 87.8385 200.795Z" fill="black"/>
<path id="Vector_9" d="M178.546 211.552C178.335 217.158 177.702 222.309 177.069 223.066C176.437 223.672 177.069 224.278 178.124 224.278C179.601 224.278 180.445 228.066 180.445 233.52C180.445 240.792 179.812 242.61 177.491 242.004C175.593 241.398 174.327 242.61 173.694 245.489C173.061 248.671 173.694 250.034 176.437 250.489C181.288 251.398 182.554 250.337 182.554 245.186C182.554 242.762 183.609 239.429 184.664 237.914C186.984 234.884 183.398 204.886 180.445 202.613C179.601 202.007 178.757 205.946 178.546 211.552ZM177.702 247.307C177.069 248.519 176.437 248.065 176.437 246.398C176.226 244.731 176.859 243.822 177.491 244.428C178.124 244.883 178.335 246.247 177.702 247.307Z" fill="black"/>
<path id="Vector_10" d="M167.999 212.31C166.311 215.188 165.889 217.461 167.155 218.067C170.53 219.582 167.788 239.429 164.412 239.429C162.725 239.429 161.459 240.186 161.459 241.095C161.459 241.853 162.514 242.156 163.78 241.55C165.467 240.944 165.678 241.55 164.623 243.823C163.991 245.489 164.202 248.065 165.256 249.428C166.733 251.398 167.999 250.186 170.53 244.277C174.327 236.399 174.749 227.309 172.429 214.734L170.952 207.462L167.999 212.31Z" fill="black"/>
<path id="Vector_11" d="M145.638 215.946C146.06 219.279 147.115 225.945 147.959 230.642C149.013 236.853 148.592 239.429 146.904 239.429C145.638 239.429 144.373 237.156 144.373 234.429C143.951 225.49 142.685 220.794 140.576 219.279C138.888 218.067 138.466 221.4 139.099 229.733L139.943 241.701L146.482 241.55C151.545 241.55 152.811 242.004 152.178 243.822C151.545 245.186 152.811 248.519 154.92 251.398C158.717 256.397 158.928 256.549 161.248 253.519C162.936 251.246 162.936 249.125 161.459 246.701C159.35 243.519 159.35 243.671 160.405 247.761L161.459 252.307L157.662 247.155C155.553 244.125 154.92 241.701 156.186 241.398C157.451 241.095 158.084 235.793 157.662 228.066C157.24 219.127 157.662 215.188 159.35 215.188C160.616 215.188 161.248 215.643 160.616 216.4C160.194 217.006 160.405 219.885 161.459 222.763C163.147 227.763 163.147 227.611 163.358 220.188C163.569 212.613 163.358 212.31 158.928 213.522C154.287 214.734 154.076 215.643 154.709 227.157C155.131 233.823 154.498 239.429 153.443 239.429C152.389 239.429 151.545 236.247 151.334 232.157C151.123 228.217 149.646 221.551 147.748 217.461C144.794 210.189 144.794 210.037 145.638 215.946Z" fill="black"/>
<path id="Vector_12" d="M106.613 215.34C106.613 216.097 105.769 216.552 104.714 216.097C102.605 215.188 103.027 223.824 105.347 225.339C105.98 225.794 106.613 227.612 106.613 229.127C106.613 230.642 107.878 231.854 109.355 231.854C110.832 231.854 113.152 233.672 114.629 235.944C119.691 244.58 124.754 249.883 128.129 250.489C133.614 251.549 134.247 247.61 129.606 240.035C126.02 233.823 126.02 233.217 128.973 235.035C132.348 237.005 132.559 236.702 131.083 231.854C130.239 228.975 128.973 224.279 128.34 221.552C126.442 214.128 123.91 215.794 124.754 223.824C125.598 231.248 124.754 231.248 122.645 223.824C120.957 218.824 117.16 218.37 117.16 223.067C117.16 225.339 117.793 225.945 118.848 224.582C119.902 223.521 120.746 225.945 120.746 230.339C120.746 234.429 120.113 237.914 119.059 237.914C116.316 237.914 114.418 227.763 115.894 220.794C117.793 212.764 113.996 214.885 111.043 223.521C109.566 228.218 109.144 228.672 108.722 225.794C108.511 223.673 108.511 220.188 108.722 217.764C108.933 215.491 108.511 213.673 107.878 213.673C107.246 213.673 106.613 214.431 106.613 215.34ZM129.184 247.459C128.973 248.216 126.864 247.156 124.965 244.883C122.856 242.611 121.801 240.187 122.645 239.278C124.121 237.459 130.239 245.186 129.184 247.459Z" fill="black"/>
<path id="Vector_13" d="M131.294 214.885C130.239 215.946 130.661 220.491 131.926 225.188C133.192 229.733 133.825 234.581 133.192 235.793C132.559 237.156 133.403 240.035 135.091 242.459C138.677 247.459 139.31 250.64 136.145 249.277C133.403 248.065 133.403 250.034 136.145 253.064C138.044 255.034 138.255 255.034 138.255 253.064C138.255 251.095 138.466 251.095 140.364 253.064C142.052 254.731 142.263 254.125 141.208 250.943C140.153 247.762 140.364 246.853 142.263 247.61C143.529 248.216 144.583 250.489 144.794 252.761C144.794 256.397 145.005 256.549 146.693 253.822C148.591 250.792 148.591 250.792 148.802 253.822C149.013 256.7 149.013 256.7 151.123 253.973C152.599 252.307 152.81 250.792 151.545 250.186C150.49 249.731 147.958 247.61 146.06 245.489C143.95 243.368 142.474 242.762 142.474 243.974C142.474 248.519 137.622 242.61 136.778 236.853C134.247 218.37 132.77 213.067 131.294 214.885Z" fill="black"/>
<path id="Vector_14" d="M176.647 233.369C176.647 236.247 177.069 237.459 177.702 235.944C178.124 234.581 178.124 232.157 177.702 230.642C177.069 229.278 176.647 230.49 176.647 233.369Z" fill="black"/>
<path id="Vector_15" d="M163.991 234.126C163.991 236.55 164.413 237.459 165.045 235.944C165.467 234.581 165.467 232.46 165.045 231.399C164.413 230.49 163.991 231.551 163.991 234.126Z" fill="black"/>
<path id="Vector_16" d="M104.504 236.247C104.504 237.005 105.98 238.368 107.668 239.429C109.355 240.489 110.832 242.307 110.832 243.519C110.832 244.731 111.676 245.337 112.731 244.731C113.996 244.277 115.684 245.186 116.949 246.549C118.215 248.064 119.27 248.519 119.27 247.761C119.27 245.489 108.933 234.884 106.613 234.884C105.347 234.884 104.504 235.49 104.504 236.247Z" fill="black"/>
</g>
</g>

    </svg>
